<svg id="svg" version="1.1" xmlns="http://www.w3.org/2000/svg" xmlns:xlink="http://www.w3.org/1999/xlink" width="400" height="250.52631578947367" viewBox="0, 0, 400,250.52631578947367"><g id="svgg"><path id="path0" d="M97.995 4.762 L 97.995 9.524 91.604 9.524 L 85.213 9.524 85.213 15.789 L 85.213 22.055 77.972 22.055 C 71.600 22.055,70.712 22.103,70.578 22.452 C 70.495 22.670,70.453 36.062,70.486 52.213 C 70.541 78.849,70.558 79.969,70.674 64.262 L 70.802 46.945 72.870 46.890 C 74.007 46.860,74.963 46.871,74.995 46.914 C 75.047 46.986,75.225 61.667,75.562 93.734 C 75.662 103.291,75.621 106.024,75.370 106.516 C 74.933 107.375,73.244 107.492,71.581 106.779 C 70.537 106.331,69.859 106.266,66.270 106.266 L 62.155 106.266 62.155 100.000 L 62.155 93.734 55.764 93.734 L 49.373 93.734 49.373 87.469 L 49.373 81.203 25.186 81.203 L 0.999 81.203 1.064 100.063 L 1.128 118.922 6.328 118.990 L 11.529 119.058 11.530 123.501 L 11.532 127.945 12.755 127.969 C 13.428 127.982,14.444 128.179,15.014 128.407 C 15.834 128.736,16.928 128.822,20.256 128.822 C 25.254 128.822,25.675 129.021,24.685 130.918 C 24.388 131.488,24.311 132.715,24.311 136.871 L 24.311 142.105 30.572 142.105 L 36.833 142.105 36.900 148.434 L 36.967 154.762 48.429 154.827 L 59.891 154.892 59.958 161.093 L 60.025 167.293 65.226 167.361 L 70.426 167.429 70.426 177.945 L 70.426 188.461 65.226 188.529 L 60.025 188.596 59.958 194.925 L 59.891 201.253 54.833 201.253 C 50.899 201.253,49.841 201.320,50.075 201.554 C 50.491 201.970,50.467 212.057,50.048 213.283 C 49.766 214.106,49.678 214.162,48.621 214.179 L 47.494 214.199 47.429 225.520 L 47.363 236.842 48.368 236.842 C 49.312 236.842,49.373 236.887,49.373 237.573 C 49.373 239.234,47.103 239.098,74.839 239.098 L 100.000 239.098 100.000 232.707 L 100.000 226.316 104.950 226.316 L 109.900 226.316 109.828 221.114 C 109.747 215.275,109.776 215.163,111.404 214.942 C 111.955 214.867,112.434 214.802,112.469 214.796 C 112.503 214.791,112.531 214.561,112.531 214.286 C 112.531 213.804,112.698 213.784,116.917 213.784 C 121.300 213.784,121.303 213.785,121.299 214.348 C 121.292 215.475,121.115 215.523,116.656 215.602 L 112.406 215.677 116.729 215.733 L 121.053 215.789 121.053 227.444 L 121.053 239.098 139.975 239.098 L 158.897 239.098 158.897 232.707 L 158.897 226.316 147.352 226.316 C 134.872 226.316,135.028 226.333,134.440 224.925 C 133.849 223.512,133.943 216.298,134.568 215.073 C 135.405 213.433,134.763 213.512,146.688 213.589 C 160.565 213.678,159.518 213.055,159.522 221.240 L 159.524 226.315 165.602 226.316 L 171.679 226.316 171.679 221.053 L 171.679 215.789 199.995 215.789 L 228.311 215.789 228.378 220.990 L 228.446 226.190 234.774 226.257 L 241.103 226.324 241.103 232.713 L 241.103 239.101 258.960 239.037 L 276.817 238.972 276.894 237.907 C 276.971 236.847,276.976 236.842,277.959 236.842 L 278.947 236.842 278.947 226.316 L 278.947 215.789 283.208 215.789 L 287.469 215.789 287.469 221.053 L 287.469 226.316 293.734 226.316 L 300.000 226.316 300.000 232.709 L 300.000 239.102 312.594 239.037 L 325.188 238.972 325.255 232.644 L 325.322 226.316 313.350 226.312 C 306.260 226.310,301.225 226.211,301.003 226.071 C 300.043 225.466,300.380 215.308,301.396 214.212 L 302.025 213.534 312.692 213.534 C 327.082 213.534,326.065 212.969,326.065 220.961 L 326.065 226.316 331.955 226.316 L 337.845 226.316 337.845 221.053 L 337.845 215.789 344.236 215.789 L 350.627 215.789 350.627 209.524 L 350.627 203.258 356.892 203.258 L 363.158 203.258 363.158 196.998 L 363.158 190.737 368.358 190.669 L 373.559 190.602 373.627 185.276 L 373.694 179.950 374.692 179.950 C 375.688 179.950,375.689 179.949,375.689 178.947 L 375.689 177.945 382.080 177.945 L 388.471 177.945 388.471 148.496 L 388.471 119.048 387.358 119.048 L 386.244 119.048 386.167 117.982 L 386.090 116.917 379.887 116.850 L 373.684 116.783 373.684 93.730 L 373.684 70.677 368.421 70.677 L 363.158 70.677 363.158 64.286 L 363.158 57.895 349.499 57.895 L 335.840 57.895 335.840 63.847 L 335.840 69.799 349.111 69.799 C 363.419 69.799,363.279 69.787,362.700 71.058 C 362.136 72.296,362.294 116.863,362.864 117.380 C 363.257 117.735,364.006 117.794,368.097 117.794 C 371.617 117.794,372.936 117.877,373.119 118.108 C 373.432 118.504,373.769 175.198,373.470 177.280 C 373.193 179.217,373.272 179.190,367.822 179.194 C 361.913 179.199,362.424 178.685,362.414 184.631 C 362.407 188.432,362.341 189.253,362.012 189.581 C 361.540 190.053,361.998 190.010,355.514 190.198 L 350.251 190.351 350.125 196.313 C 350.022 201.244,349.935 202.315,349.624 202.512 C 349.207 202.775,230.645 202.864,229.961 202.601 C 228.981 202.225,228.822 201.252,228.822 195.626 L 228.822 190.226 224.185 190.226 C 221.635 190.226,219.526 190.254,219.498 190.288 C 219.470 190.323,219.386 192.939,219.310 196.102 L 219.173 201.852 218.296 202.367 C 217.419 202.882,217.374 202.882,158.521 203.008 L 99.624 203.133 99.499 208.521 C 99.327 215.900,99.952 215.288,92.591 215.288 C 87.233 215.288,87.227 215.289,87.103 215.852 C 87.035 216.162,86.948 218.371,86.911 220.761 L 86.842 225.107 86.139 225.711 L 85.436 226.316 73.783 226.316 C 61.098 226.316,60.918 226.297,60.390 224.909 C 59.986 223.845,60.077 202.378,60.487 202.037 C 60.727 201.838,66.203 201.739,79.472 201.693 L 98.120 201.629 98.120 195.990 L 98.120 190.351 92.273 190.226 C 86.853 190.109,86.399 190.065,86.070 189.614 C 85.765 189.196,85.714 177.311,85.714 105.717 L 85.714 22.306 91.850 22.306 L 97.985 22.306 98.103 21.742 C 98.168 21.432,98.270 19.091,98.331 16.541 C 98.457 11.258,98.653 10.407,99.795 10.179 C 101.075 9.923,299.901 10.000,300.576 10.256 C 301.496 10.606,301.563 10.976,301.768 16.792 C 301.873 19.756,301.969 22.209,301.982 22.243 C 301.995 22.278,304.768 22.306,308.145 22.306 L 314.286 22.306 314.288 57.331 C 314.290 76.595,314.361 92.779,314.447 93.296 L 314.602 94.236 318.935 94.236 C 324.679 94.236,324.060 94.907,324.060 88.679 C 324.060 81.426,323.612 81.879,330.952 81.704 L 336.216 81.579 336.289 76.942 C 336.330 74.392,336.296 71.939,336.215 71.491 L 336.068 70.677 331.693 70.677 L 327.318 70.677 327.318 69.549 L 327.318 68.421 326.317 68.421 L 325.316 68.421 325.252 45.301 L 325.188 22.180 319.987 22.113 L 314.787 22.045 314.787 15.784 L 314.787 9.524 308.396 9.524 L 302.005 9.524 302.005 4.762 L 302.005 0.000 200.000 0.000 L 97.995 0.000 97.995 4.762 M219.612 59.814 C 219.188 59.986,219.169 68.113,219.589 69.036 L 219.880 69.674 228.298 69.700 C 238.644 69.733,240.923 69.688,241.171 69.449 C 241.278 69.346,241.334 67.127,241.296 64.518 L 241.228 59.774 230.576 59.730 C 224.718 59.706,219.784 59.743,219.612 59.814 M207.185 72.348 C 206.976 72.556,206.961 116.855,207.170 117.398 C 207.416 118.041,215.790 117.985,216.377 117.336 C 217.000 116.649,217.017 72.571,216.396 72.333 C 215.855 72.125,207.393 72.139,207.185 72.348 M242.976 72.483 C 242.904 72.671,242.876 74.794,242.914 77.202 L 242.982 81.579 247.744 81.579 C 250.363 81.579,252.704 81.498,252.945 81.399 C 253.507 81.168,253.624 72.867,253.070 72.509 C 252.474 72.123,243.123 72.100,242.976 72.483 M255.384 83.594 C 254.979 84.660,255.065 93.613,255.484 93.960 C 255.723 94.158,257.185 94.226,260.183 94.179 L 264.536 94.110 264.536 88.596 L 264.536 83.083 260.084 83.014 L 255.631 82.946 255.384 83.594 M61.293 94.340 C 61.750 94.675,61.779 95.044,61.779 100.543 L 61.779 106.391 60.840 106.469 L 59.900 106.547 59.900 100.266 C 59.900 93.437,59.923 93.339,61.293 94.340 M37.443 94.520 C 38.350 94.933,38.395 95.188,38.382 99.875 C 38.375 102.218,38.449 104.643,38.546 105.263 L 38.722 106.391 43.629 106.516 L 48.536 106.642 49.438 107.393 L 50.340 108.145 50.358 112.540 L 50.376 116.935 51.104 117.365 C 51.712 117.724,52.510 117.794,55.963 117.794 C 61.676 117.794,61.622 117.731,61.643 124.482 C 61.649 126.438,61.764 128.327,61.899 128.680 L 62.143 129.323 66.293 129.323 C 70.872 129.323,72.002 129.573,72.421 130.675 C 72.622 131.203,72.845 131.312,73.861 131.377 L 75.063 131.454 75.063 135.840 L 75.063 140.226 73.939 140.306 C 73.034 140.370,72.685 140.541,72.149 141.183 L 71.483 141.980 60.530 141.980 L 49.576 141.980 48.975 141.228 C 48.391 140.498,48.373 140.346,48.372 136.036 C 48.371 130.633,48.840 131.078,43.138 131.078 C 38.994 131.078,38.855 131.061,38.172 130.473 L 37.469 129.869 37.343 124.980 C 37.274 122.291,37.142 120.016,37.050 119.923 C 36.627 119.501,34.622 119.310,30.557 119.304 L 26.153 119.298 25.545 118.652 C 24.955 118.025,24.934 117.866,24.812 113.076 L 24.687 108.145 19.173 108.005 C 11.669 107.814,12.281 108.456,12.281 100.774 C 12.281 94.745,12.305 94.652,13.910 94.419 C 15.745 94.154,36.838 94.244,37.443 94.520 M266.917 95.661 L 266.291 95.760 266.378 100.303 C 266.458 104.441,266.514 104.919,267.005 105.678 L 267.544 106.510 290.145 106.513 L 312.746 106.516 312.903 105.201 C 312.989 104.477,313.026 102.024,312.984 99.749 L 312.907 95.614 290.226 95.588 C 277.751 95.574,267.262 95.607,266.917 95.661 M194.534 120.614 C 194.381 121.130,194.351 131.503,194.452 148.872 L 194.612 176.316 200.125 176.316 L 205.639 176.316 205.710 148.872 C 205.749 133.778,205.716 121.062,205.636 120.614 L 205.491 119.799 200.133 119.799 L 194.776 119.799 194.534 120.614 M11.963 124.381 C 11.910 124.963,11.868 124.424,11.868 123.183 C 11.869 121.942,11.912 121.466,11.964 122.125 C 12.016 122.784,12.015 123.799,11.963 124.381 M13.784 123.308 C 13.784 125.547,13.780 125.564,13.158 125.564 C 12.536 125.564,12.531 125.547,12.531 123.308 C 12.531 121.069,12.536 121.053,13.158 121.053 C 13.780 121.053,13.784 121.069,13.784 123.308 M255.806 131.245 C 255.714 131.337,255.639 133.308,255.639 135.626 C 255.639 140.277,255.325 141.761,254.295 141.966 C 252.007 142.423,248.016 142.539,245.071 142.235 L 243.149 142.036 242.990 143.136 C 242.903 143.741,242.866 146.209,242.907 148.622 L 242.982 153.008 253.885 153.008 L 264.787 153.008 264.852 142.385 C 264.899 134.751,264.838 131.666,264.634 131.420 C 264.333 131.057,256.156 130.895,255.806 131.245 M337.748 131.469 C 337.663 131.690,337.594 133.987,337.594 136.573 C 337.594 140.751,337.545 141.315,337.155 141.628 C 336.261 142.346,335.704 142.506,334.712 142.331 C 334.160 142.234,333.223 142.242,332.630 142.351 C 332.036 142.459,331.134 142.450,330.625 142.332 C 326.800 141.444,326.105 142.391,326.007 148.625 L 325.940 152.883 326.692 153.017 C 327.105 153.091,332.237 153.119,338.095 153.080 L 348.747 153.008 348.747 142.105 L 348.747 131.203 343.324 131.136 C 338.544 131.076,337.884 131.116,337.748 131.469 M301.907 142.502 C 301.823 142.720,301.754 145.203,301.754 148.020 L 301.754 153.142 307.331 153.075 L 312.907 153.008 312.984 148.872 C 313.026 146.598,312.989 144.145,312.903 143.421 L 312.746 142.105 307.402 142.105 C 302.761 142.105,302.039 142.157,301.907 142.502 M255.451 167.292 C 255.211 167.565,255.138 170.111,255.138 178.180 L 255.138 188.712 255.702 188.848 C 256.012 188.923,274.254 188.953,296.241 188.916 L 336.216 188.847 336.285 178.446 C 336.324 172.726,336.293 167.791,336.218 167.481 C 336.054 166.806,328.111 166.596,326.744 167.231 L 326.069 167.544 326.067 171.872 C 326.064 179.279,326.691 178.947,312.687 178.947 C 299.501 178.947,300.743 179.664,300.518 171.930 L 300.376 167.043 295.456 166.975 C 292.616 166.936,290.259 167.012,289.880 167.157 L 289.223 167.406 289.223 171.932 C 289.223 179.564,290.213 178.993,277.159 178.898 C 263.978 178.802,264.912 179.339,264.912 171.850 C 264.912 168.815,264.822 167.429,264.612 167.218 C 264.144 166.751,255.869 166.818,255.451 167.292 M207.143 179.762 C 207.062 180.210,207.028 182.437,207.069 184.712 L 207.143 188.847 211.404 188.919 C 217.421 189.020,216.792 189.565,216.792 184.245 C 216.792 178.510,217.222 178.947,211.583 178.947 L 207.291 178.947 207.143 179.762 M264.286 213.656 C 264.561 213.720,265.125 214.065,265.539 214.424 L 266.291 215.077 266.370 219.612 C 266.498 226.970,267.737 226.314,253.713 226.315 C 247.132 226.315,242.632 226.218,242.233 226.066 L 241.577 225.817 241.653 220.318 L 241.729 214.819 242.405 214.114 L 243.081 213.409 253.433 213.475 C 259.126 213.511,264.010 213.593,264.286 213.656 " stroke="none" fill="#050505" fill-rule="evenodd"></path></g></svg>