<svg id="svg" version="1.1" xmlns="http://www.w3.org/2000/svg" xmlns:xlink="http://www.w3.org/1999/xlink" width="400" height="248.93617021276594" viewBox="0, 0, 400,248.93617021276594"><g id="svgg"><path id="path0" d="M96.887 3.736 L 96.887 7.472 90.562 7.472 C 85.025 7.472,84.219 7.521,84.086 7.866 C 84.003 8.083,83.935 10.941,83.935 14.217 L 83.935 20.174 76.588 20.174 L 69.240 20.174 69.301 50.125 C 69.339 68.898,69.386 73.635,69.427 62.817 L 69.493 45.559 71.546 45.631 L 73.599 45.704 73.774 63.263 C 73.870 72.920,73.969 81.382,73.994 82.067 C 74.019 82.752,74.036 83.593,74.032 83.935 C 74.028 84.278,74.072 91.689,74.129 100.406 C 74.246 118.260,74.311 117.554,72.547 117.569 C 71.598 117.577,71.183 117.728,70.495 118.316 L 69.633 119.054 59.412 119.034 L 49.191 119.014 48.070 118.333 C 46.341 117.282,46.315 117.170,46.387 110.896 L 46.451 105.354 41.781 105.355 L 37.111 105.355 37.111 99.004 L 37.111 92.653 23.439 92.653 C 11.202 92.653,9.751 92.694,9.616 93.047 C 9.533 93.263,9.465 96.121,9.465 99.398 L 9.465 105.355 4.732 105.355 L 0.000 105.355 0.000 116.693 L 0.000 128.030 4.912 127.963 C 9.813 127.896,9.824 127.894,10.121 127.300 C 10.608 126.321,10.460 105.912,9.963 105.602 C 9.327 105.206,9.984 104.519,11.023 104.493 C 11.718 104.475,11.982 104.593,12.170 105.006 C 12.543 105.825,13.721 105.900,25.383 105.850 C 31.217 105.826,36.130 105.816,36.301 105.829 C 36.545 105.848,36.613 108.131,36.613 116.347 C 36.613 123.579,36.702 127.141,36.901 127.804 L 37.190 128.767 53.115 128.767 C 70.702 128.767,70.489 128.749,71.078 130.309 C 71.311 130.926,71.468 131.009,72.408 131.009 L 73.474 131.009 73.474 141.719 L 73.474 152.428 72.380 152.428 C 71.648 152.428,71.240 152.549,71.146 152.794 C 70.754 153.815,69.627 153.923,59.355 153.923 C 53.001 153.923,49.360 154.015,49.045 154.183 C 48.582 154.431,48.560 154.740,48.577 160.783 L 48.594 167.123 58.917 167.123 L 69.240 167.123 69.240 184.184 L 69.240 201.245 63.884 201.245 L 58.527 201.245 58.591 220.361 L 58.655 239.477 78.767 239.541 L 98.879 239.604 98.879 233.127 L 98.879 226.650 105.230 226.650 L 111.582 226.650 111.582 221.420 L 111.582 216.189 115.940 216.189 L 120.299 216.189 120.299 221.420 L 120.299 226.650 126.646 226.650 L 132.993 226.650 133.059 233.064 L 133.126 239.477 151.121 239.541 L 169.116 239.605 169.116 238.497 L 169.116 237.389 170.174 237.312 L 171.233 237.235 171.298 226.712 L 171.363 216.189 206.478 216.189 L 241.594 216.189 241.594 221.420 L 241.594 226.650 247.941 226.650 L 254.288 226.650 254.354 233.064 L 254.421 239.477 272.416 239.541 L 290.411 239.605 290.411 227.897 L 290.411 216.189 295.766 216.189 L 301.121 216.189 301.121 221.420 L 301.121 226.650 307.468 226.650 L 313.815 226.650 313.881 233.064 L 313.948 239.477 333.001 239.477 L 352.055 239.477 352.120 227.833 L 352.184 216.189 358.533 216.189 L 364.882 216.189 364.882 209.714 L 364.882 203.238 370.237 203.238 L 375.592 203.238 375.592 196.890 L 375.592 190.543 383.001 190.477 L 390.411 190.411 390.478 184.122 L 390.544 177.833 395.272 177.833 L 400.000 177.833 400.000 146.949 L 400.000 116.065 395.269 116.065 L 390.538 116.065 390.475 92.715 L 390.411 69.365 383.998 69.298 L 377.584 69.232 377.584 68.115 L 377.584 66.999 376.588 66.999 L 375.592 66.999 375.592 61.768 L 375.592 56.538 362.765 56.538 L 349.938 56.538 349.942 62.827 C 349.944 66.286,350.037 68.971,350.149 68.795 C 350.311 68.539,352.727 68.489,362.095 68.546 L 373.837 68.618 374.528 69.308 L 375.218 69.999 375.342 93.208 L 375.467 116.418 376.339 116.624 C 376.818 116.737,379.452 116.861,382.192 116.898 C 387.469 116.969,388.546 117.163,389.109 118.146 C 389.344 118.556,389.443 125.452,389.539 147.969 C 389.639 171.333,389.729 177.337,389.984 177.645 C 390.418 178.167,389.423 178.284,382.316 178.552 C 379.234 178.669,376.459 178.848,376.149 178.951 C 375.401 179.200,375.364 179.453,375.285 184.807 C 375.248 187.341,375.127 189.555,375.016 189.726 C 374.867 189.958,373.570 190.037,369.956 190.037 C 363.503 190.037,364.135 189.381,364.131 196.086 C 364.129 199.129,364.045 201.742,363.944 201.893 C 363.378 202.740,363.410 202.740,302.919 202.740 L 243.166 202.740 242.691 202.216 C 242.262 201.742,242.205 201.145,242.092 195.927 L 241.968 190.162 236.364 190.162 L 230.760 190.162 230.635 195.890 C 230.521 201.125,230.401 202.138,229.817 202.800 C 229.787 202.834,200.230 202.918,164.134 202.987 L 98.506 203.113 98.441 214.423 C 98.396 222.269,98.291 225.836,98.099 226.067 C 97.874 226.339,95.339 226.401,84.550 226.401 L 71.277 226.401 70.632 225.635 L 69.988 224.868 69.988 213.852 C 69.988 204.732,70.048 202.752,70.341 202.351 C 70.682 201.885,71.157 201.866,83.912 201.799 L 97.129 201.731 97.267 201.177 C 97.438 200.486,97.234 190.551,97.044 190.361 C 96.968 190.285,94.353 190.174,91.233 190.115 C 86.495 190.025,85.488 189.942,85.121 189.610 C 84.704 189.232,84.682 185.101,84.682 104.818 L 84.682 20.423 90.770 20.423 C 95.173 20.423,96.907 20.342,97.039 20.130 C 97.138 19.969,97.290 17.392,97.375 14.403 C 97.485 10.549,97.621 8.879,97.844 8.657 C 98.318 8.183,301.321 8.071,301.968 8.544 C 302.617 9.019,302.841 10.599,302.856 14.819 C 302.864 16.874,302.939 18.976,303.024 19.489 L 303.179 20.423 309.243 20.423 L 315.308 20.423 315.444 20.984 C 315.519 21.292,315.549 37.722,315.511 57.494 L 315.442 93.444 314.841 93.931 C 314.253 94.407,313.872 94.414,297.152 94.243 C 283.759 94.106,279.940 94.135,279.487 94.377 L 278.910 94.686 278.996 99.709 C 279.055 103.192,279.179 104.904,279.400 105.293 L 279.719 105.853 302.064 105.849 C 314.353 105.847,324.545 105.759,324.711 105.653 C 325.350 105.247,325.602 102.827,325.430 98.745 C 325.197 93.211,325.272 93.154,332.889 93.152 C 336.052 93.151,337.473 93.062,337.684 92.852 C 337.898 92.637,337.984 90.968,337.986 86.936 C 337.988 83.839,338.096 81.153,338.226 80.946 C 338.422 80.636,339.437 80.559,344.257 80.493 C 348.070 80.441,350.169 80.318,350.390 80.134 C 350.769 79.819,350.740 70.141,350.359 69.552 C 350.206 69.316,348.592 69.240,343.696 69.240 L 337.235 69.240 337.235 74.595 L 337.235 79.950 331.880 79.950 L 326.526 79.950 326.526 50.062 L 326.526 20.174 321.299 20.174 L 316.073 20.174 316.007 13.885 L 315.940 7.597 309.527 7.530 L 303.113 7.464 303.113 3.732 L 303.113 0.000 200.000 0.000 L 96.887 0.000 96.887 3.736 M230.685 58.331 C 230.314 58.703,230.265 66.898,230.629 67.854 L 230.872 68.493 241.432 68.493 C 255.834 68.493,254.545 69.040,254.545 62.929 L 254.545 58.631 253.718 58.331 C 252.537 57.904,231.112 57.904,230.685 58.331 M219.590 70.941 C 219.213 71.358,219.178 73.305,219.178 93.827 L 219.178 116.257 219.812 116.672 C 220.924 117.400,228.774 117.142,229.129 116.364 C 229.489 115.574,229.492 71.641,229.132 70.967 C 228.747 70.249,220.238 70.225,219.590 70.941 M256.065 70.829 C 255.867 71.067,255.800 72.585,255.847 75.748 L 255.915 80.324 260.491 80.392 C 263.654 80.439,265.172 80.372,265.410 80.174 C 265.834 79.822,265.910 71.741,265.496 70.967 C 265.160 70.340,256.575 70.215,256.065 70.829 M267.995 81.797 L 267.123 82.111 267.056 87.473 L 266.989 92.835 267.928 92.990 C 269.130 93.189,275.912 93.192,276.650 92.994 C 277.206 92.845,277.544 84.330,277.065 82.547 C 276.779 81.484,270.340 80.951,267.995 81.797 M207.236 118.991 C 206.956 120.000,206.848 175.473,207.125 176.194 C 207.371 176.834,216.189 176.778,216.773 176.132 C 217.152 175.714,217.186 173.401,217.186 147.953 L 217.186 120.229 216.643 119.143 L 216.101 118.057 211.798 118.057 L 207.495 118.057 207.236 118.991 M14.446 130.161 C 14.103 130.220,13.403 130.383,12.889 130.524 L 11.955 130.780 11.899 135.191 L 11.843 139.601 11.769 135.305 L 11.694 131.009 10.579 131.009 L 9.465 131.009 9.465 135.845 C 9.465 138.505,9.533 140.859,9.616 141.076 C 9.748 141.420,10.554 141.469,16.087 141.469 L 22.408 141.469 22.474 147.883 L 22.540 154.296 34.299 154.361 L 46.057 154.426 46.378 153.863 C 47.175 152.469,46.860 141.963,46.006 141.420 C 45.840 141.315,40.644 141.226,34.460 141.224 C 24.439 141.221,23.200 141.178,23.065 140.826 C 22.982 140.610,22.914 138.270,22.914 135.627 C 22.914 131.474,22.858 130.774,22.505 130.481 C 22.102 130.147,15.952 129.902,14.446 130.161 M268.618 130.487 L 267.870 130.924 267.802 135.225 C 267.701 141.610,267.541 141.750,260.548 141.557 L 256.320 141.440 256.057 142.389 C 255.679 143.750,255.706 152.244,256.090 152.628 C 256.496 153.034,274.748 153.052,276.353 152.648 L 277.460 152.369 277.460 141.695 L 277.460 131.020 276.416 130.516 C 274.985 129.825,269.781 129.805,268.618 130.487 M352.071 130.433 C 351.994 130.635,351.930 132.683,351.930 134.983 C 351.930 141.916,352.396 141.469,345.141 141.485 L 339.765 141.497 339.310 142.168 C 338.619 143.186,338.466 152.118,339.131 152.604 C 339.736 153.046,359.738 153.070,361.642 152.631 L 362.924 152.335 362.782 148.583 C 362.643 144.891,362.614 143.692,362.614 141.719 C 362.614 141.171,362.610 140.218,362.606 139.601 C 362.602 138.985,362.599 137.976,362.600 137.360 C 362.602 136.743,362.598 135.819,362.593 135.305 C 362.588 134.791,362.667 133.633,362.767 132.731 L 362.951 131.092 361.612 130.575 C 359.876 129.904,352.317 129.792,352.071 130.433 M315.752 141.905 C 315.200 143.161,315.189 152.152,315.738 152.569 C 316.358 153.039,324.233 153.076,324.868 152.612 C 325.744 151.971,325.600 141.985,324.706 141.417 C 324.542 141.313,322.528 141.226,320.230 141.224 L 316.052 141.220 315.752 141.905 M45.828 166.874 C 45.828 167.011,46.080 167.122,46.389 167.119 C 46.842 167.116,46.877 167.069,46.575 166.874 C 46.092 166.562,45.828 166.562,45.828 166.874 M267.559 166.801 L 266.999 166.909 266.999 177.702 L 266.999 188.494 267.783 188.768 C 268.961 189.178,349.975 189.153,350.386 188.742 C 350.816 188.312,350.816 167.354,350.386 166.924 C 349.946 166.484,339.391 166.502,339.025 166.944 C 338.864 167.137,338.730 169.189,338.683 172.156 C 338.611 176.679,338.565 177.104,338.080 177.753 L 337.555 178.456 326.770 178.521 C 313.298 178.602,314.535 179.290,314.328 171.606 L 314.197 166.750 308.749 166.682 C 301.968 166.599,302.615 166.065,302.615 171.745 C 302.615 179.216,303.747 178.580,290.451 178.580 C 276.688 178.580,277.460 179.001,277.460 171.498 L 277.460 167.172 276.675 166.899 C 275.929 166.638,268.799 166.562,267.559 166.801 M219.706 178.972 C 219.213 179.599,219.178 179.936,219.180 184.031 L 219.182 188.418 219.852 188.730 C 220.769 189.156,228.667 189.166,229.091 188.742 C 229.498 188.335,229.506 180.105,229.101 179.215 L 228.812 178.580 224.887 178.580 C 222.728 178.580,220.798 178.517,220.598 178.441 C 220.383 178.358,220.018 178.576,219.706 178.972 M157.160 214.273 C 158.490 214.727,158.760 215.758,158.771 220.423 C 158.786 226.895,159.852 226.422,145.404 226.341 L 133.873 226.276 133.873 220.588 C 133.873 214.910,133.874 214.898,134.461 214.424 C 135.184 213.838,155.491 213.703,157.160 214.273 M276.492 214.226 C 278.885 214.739,278.954 214.912,278.954 220.390 L 278.954 225.111 278.188 225.756 L 277.421 226.401 265.983 226.401 L 254.545 226.401 254.551 220.984 C 254.557 215.180,254.602 214.959,255.915 214.237 C 256.608 213.856,274.722 213.847,276.492 214.226 M337.762 214.212 C 338.829 214.783,339.311 224.356,338.347 225.827 L 337.971 226.401 326.389 226.401 L 314.807 226.401 314.564 225.762 C 314.431 225.411,314.321 223.109,314.321 220.648 C 314.321 215.784,314.552 214.636,315.618 214.209 C 316.446 213.876,337.141 213.879,337.762 214.212 " stroke="none" fill="#080807" fill-rule="evenodd"></path></g></svg>