<svg id="svg" version="1.1" xmlns="http://www.w3.org/2000/svg" xmlns:xlink="http://www.w3.org/1999/xlink" width="400" height="250.52631578947367" viewBox="0, 0, 400,250.52631578947367"><g id="svgg"><path id="path0" d="M160.902 0.573 C 160.902 2.072,162.367 2.005,129.723 2.005 L 100.000 2.005 100.000 6.767 L 100.000 11.529 93.734 11.529 L 87.469 11.529 87.469 17.016 C 87.469 21.185,87.544 22.527,87.782 22.603 C 87.954 22.658,90.858 22.642,94.236 22.567 L 100.376 22.431 100.444 17.105 L 100.511 11.779 202.101 11.779 L 303.691 11.779 303.851 12.942 C 303.938 13.582,304.010 15.990,304.010 18.295 L 304.010 22.485 309.795 22.613 C 314.749 22.722,315.640 22.801,315.998 23.159 C 316.384 23.545,316.416 26.334,316.416 60.056 L 316.416 96.535 315.824 97.015 C 315.255 97.476,314.598 97.494,298.238 97.494 C 288.891 97.494,281.066 97.562,280.848 97.646 C 280.287 97.861,280.251 106.352,280.809 106.910 C 281.434 107.535,325.083 107.437,325.650 106.810 C 326.002 106.422,326.066 105.701,326.069 102.111 L 326.073 97.870 326.846 96.992 L 327.619 96.115 332.859 96.027 C 337.981 95.941,338.101 95.927,338.218 95.401 C 338.283 95.105,338.367 92.527,338.404 89.674 C 338.454 85.829,338.555 84.401,338.796 84.160 C 339.037 83.919,340.666 83.802,345.062 83.709 L 351.003 83.584 351.070 77.714 C 351.114 73.898,351.234 71.728,351.414 71.511 C 351.745 71.112,374.551 71.020,375.176 71.416 C 375.489 71.614,375.550 74.705,375.611 93.405 C 375.649 105.372,375.683 115.733,375.685 116.429 C 375.692 118.587,376.440 118.797,384.101 118.797 L 390.243 118.797 389.944 119.356 C 389.714 119.786,389.685 126.677,389.821 149.118 C 389.967 173.156,389.939 178.401,389.667 178.773 C 389.133 179.501,387.655 179.687,382.331 179.696 C 379.574 179.701,376.924 179.770,376.441 179.850 L 375.564 179.995 375.629 185.624 C 375.713 192.944,376.297 192.230,370.229 192.234 C 367.512 192.237,365.160 192.321,365.003 192.422 C 364.808 192.548,364.688 194.374,364.625 198.176 C 364.544 203.105,364.482 203.796,364.087 204.191 C 363.648 204.630,246.949 205.070,245.179 204.640 C 243.924 204.335,243.756 203.593,243.615 197.764 L 243.484 192.356 238.113 192.288 C 233.984 192.236,232.696 192.294,232.541 192.539 C 232.429 192.714,232.337 195.190,232.335 198.041 C 232.330 203.794,232.229 204.323,231.058 204.731 C 230.469 204.936,212.869 205.013,165.997 205.013 L 101.743 205.013 101.812 209.712 L 101.880 214.411 107.143 214.536 C 113.703 214.693,113.661 214.674,113.923 217.478 C 114.303 221.533,113.937 226.277,113.186 227.029 L 112.520 227.694 101.103 227.773 C 88.347 227.861,88.729 227.910,88.234 226.130 C 88.072 225.547,87.972 221.309,87.971 215.012 L 87.970 204.836 88.544 203.984 L 89.117 203.133 94.669 203.065 L 100.221 202.998 100.374 201.938 C 100.458 201.354,100.493 199.016,100.451 196.742 L 100.376 192.607 94.737 192.476 C 88.994 192.343,88.417 192.261,88.052 191.522 C 87.938 191.291,87.788 153.716,87.719 108.020 L 87.594 24.937 83.228 24.869 L 78.862 24.800 78.153 25.479 L 77.444 26.159 77.444 60.933 C 77.444 83.949,77.357 95.934,77.188 96.379 C 76.934 97.047,73.920 97.227,72.956 96.631 C 72.759 96.509,72.682 99.637,72.682 107.755 L 72.682 119.048 67.419 119.048 L 62.155 119.048 62.155 124.311 L 62.155 129.574 44.236 129.574 L 26.316 129.574 26.316 135.840 L 26.316 142.105 14.787 142.105 L 3.258 142.105 3.258 154.762 L 3.258 167.419 8.647 167.419 C 11.610 167.419,14.054 167.390,14.076 167.356 C 14.099 167.321,14.183 164.852,14.264 161.868 C 14.457 154.741,13.758 155.417,21.025 155.330 L 26.692 155.263 26.817 149.206 C 26.886 145.874,27.036 143.055,27.151 142.940 C 27.266 142.826,37.793 142.732,50.544 142.732 L 73.728 142.732 74.320 143.421 C 74.806 143.985,75.120 144.110,76.053 144.110 L 77.193 144.110 77.193 149.624 L 77.193 155.138 75.940 155.138 C 75.231 155.138,74.687 155.252,74.687 155.401 C 74.687 156.253,73.096 156.391,63.229 156.397 C 51.610 156.403,52.197 156.258,52.484 159.052 C 52.703 161.179,52.703 161.069,52.496 163.659 C 52.361 165.353,52.193 165.986,51.681 166.747 C 50.496 168.504,51.382 168.420,33.530 168.467 C 24.669 168.490,16.601 168.518,15.602 168.528 L 13.784 168.546 13.784 174.248 L 13.784 179.950 38.972 179.950 L 64.160 179.950 64.160 174.786 C 64.160 169.643,64.158 169.618,63.534 168.877 C 61.865 166.893,62.843 166.414,68.539 166.424 C 73.704 166.433,73.938 166.508,74.168 168.231 L 74.311 169.298 75.627 169.374 L 76.942 169.450 76.942 185.632 L 76.942 201.815 75.376 201.689 C 74.514 201.620,73.640 201.522,73.434 201.471 C 73.106 201.390,73.041 199.317,72.930 185.338 C 72.836 173.618,72.785 178.967,72.742 205.201 L 72.682 241.103 93.734 241.103 L 114.787 241.103 114.787 234.842 L 114.787 228.582 119.987 228.514 L 125.188 228.446 125.255 222.118 L 125.322 215.789 130.581 215.789 L 135.840 215.789 135.840 222.180 L 135.840 228.571 142.105 228.571 L 148.371 228.571 148.371 234.837 L 148.371 241.103 166.291 241.103 L 184.211 241.103 184.211 228.446 L 184.211 215.789 220.050 215.789 L 255.890 215.789 255.890 222.180 L 255.890 228.571 261.153 228.571 L 266.416 228.571 266.416 234.837 L 266.416 241.103 285.338 241.103 L 304.261 241.103 304.261 228.446 L 304.261 215.789 309.524 215.789 L 314.787 215.789 314.787 222.180 L 314.787 228.571 320.050 228.571 L 325.313 228.571 325.313 234.837 L 325.313 241.103 345.238 241.103 L 365.163 241.103 365.163 223.183 L 365.163 205.263 370.426 205.263 L 375.689 205.263 375.689 198.997 L 375.689 192.732 383.083 192.732 L 390.476 192.732 390.476 186.341 L 390.476 179.950 395.238 179.950 L 400.000 179.950 400.000 149.499 L 400.000 119.048 395.238 119.048 L 390.476 119.048 390.476 94.862 L 390.476 70.677 383.083 70.677 L 375.689 70.677 375.689 65.414 L 375.689 60.150 363.158 60.150 L 350.627 60.150 350.627 65.414 L 350.627 70.677 344.236 70.677 L 337.845 70.677 337.845 76.942 L 337.845 83.208 332.581 83.208 L 327.318 83.208 327.318 52.632 L 327.318 22.055 322.055 22.055 L 316.792 22.055 316.792 16.792 L 316.792 11.529 310.526 11.529 L 304.261 11.529 304.261 5.764 L 304.261 0.000 232.581 0.000 L 160.902 0.000 160.902 0.573 M232.489 62.218 C 232.291 62.956,232.286 70.268,232.483 70.782 C 232.663 71.250,253.538 71.393,254.746 70.934 L 255.388 70.689 255.388 66.462 L 255.388 62.236 254.750 61.945 C 254.297 61.739,250.989 61.654,243.376 61.654 L 232.640 61.654 232.489 62.218 M221.813 72.916 C 221.426 73.640,221.456 117.306,221.845 118.159 L 222.136 118.797 226.332 118.797 L 230.527 118.797 230.803 118.008 C 231.097 117.164,231.209 74.074,230.920 72.995 C 230.700 72.176,222.249 72.102,221.813 72.916 M257.499 72.714 C 257.230 73.148,257.205 83.039,257.472 83.396 C 257.643 83.626,258.892 83.709,262.181 83.709 L 266.657 83.709 266.814 83.083 C 267.032 82.216,266.831 73.130,266.586 72.744 C 266.317 72.322,257.759 72.293,257.499 72.714 M269.236 85.144 L 268.421 85.245 268.425 89.552 C 268.429 93.561,268.469 93.929,268.997 94.862 L 269.564 95.865 273.490 95.934 L 277.417 96.003 277.679 95.056 C 278.250 93.003,278.018 85.291,277.381 85.120 C 276.776 84.958,270.587 84.976,269.236 85.144 M209.335 149.561 L 209.398 178.321 213.409 178.395 C 215.614 178.435,217.782 178.403,218.227 178.322 L 219.036 178.175 219.039 149.639 C 219.041 123.938,219.003 121.089,218.648 120.953 C 218.432 120.870,216.233 120.802,213.763 120.802 L 209.271 120.802 209.335 149.561 M353.634 131.579 L 352.506 131.704 352.381 137.398 C 352.220 144.692,352.976 143.950,345.543 144.110 L 339.724 144.236 339.656 149.467 C 339.608 153.197,339.673 154.800,339.883 155.053 C 340.384 155.657,361.720 155.431,362.335 154.815 C 363.084 154.065,363.099 134.474,362.351 132.782 L 361.831 131.604 358.296 131.529 C 356.352 131.487,354.254 131.510,353.634 131.579 M269.913 132.103 C 269.468 132.933,269.133 137.247,269.312 139.824 L 269.476 142.179 268.510 143.082 L 267.544 143.985 262.424 144.110 L 257.305 144.236 257.317 149.434 C 257.326 153.273,257.413 154.734,257.649 155.019 C 258.172 155.649,277.232 155.457,277.873 154.816 C 278.613 154.077,278.702 134.361,277.974 132.715 L 277.472 131.579 273.832 131.579 C 270.397 131.579,270.177 131.608,269.913 132.103 M316.541 144.237 C 316.194 144.655,316.276 154.506,316.631 155.081 C 316.945 155.588,325.157 155.509,325.671 154.995 C 326.264 154.402,326.262 144.239,325.669 144.012 C 324.736 143.654,316.863 143.848,316.541 144.237 M269.868 168.812 C 268.555 169.525,268.552 169.549,268.471 180.506 L 268.395 190.711 269.097 190.907 C 269.484 191.015,288.070 191.103,310.401 191.103 L 351.003 191.103 351.068 180.252 C 351.111 173.056,351.045 169.236,350.871 168.911 C 350.545 168.301,340.314 168.136,339.927 168.734 C 339.816 168.907,339.668 171.215,339.599 173.864 C 339.432 180.299,340.949 179.558,327.756 179.644 C 313.825 179.735,314.879 180.250,315.167 173.496 C 315.396 168.136,315.883 168.568,309.495 168.460 C 303.184 168.353,303.759 167.803,303.759 173.944 C 303.759 180.255,305.152 179.556,292.392 179.650 C 280.945 179.735,280.276 179.691,279.199 178.785 L 278.446 178.151 278.446 173.834 L 278.446 169.518 277.704 168.969 C 276.763 168.274,271.071 168.159,269.868 168.812 M221.668 180.013 C 221.600 180.192,221.574 182.704,221.611 185.595 L 221.679 190.852 226.316 190.852 L 230.952 190.852 230.952 185.338 L 230.952 179.825 226.373 179.756 C 222.799 179.703,221.766 179.759,221.668 180.013 M172.423 215.155 C 172.954 215.636,172.965 215.776,172.887 220.977 L 172.807 226.305 172.112 227.000 L 171.417 227.694 160.534 227.694 C 151.946 227.694,149.581 227.626,149.324 227.369 C 148.812 226.859,148.715 215.847,149.215 215.163 C 149.935 214.181,171.340 214.173,172.423 215.155 M351.566 215.172 C 352.756 216.533,352.299 226.617,351.009 227.462 C 350.053 228.089,327.841 227.893,327.132 227.252 C 325.756 226.005,325.585 216.413,326.916 215.082 C 327.492 214.506,329.970 214.401,341.353 214.469 L 351.003 214.527 351.566 215.172 M290.727 215.038 C 291.941 216.251,291.336 226.840,290.013 227.549 C 289.455 227.847,271.569 227.937,269.207 227.654 C 267.240 227.418,267.111 226.998,267.075 220.716 L 267.046 215.743 267.747 215.140 L 268.449 214.536 279.337 214.536 C 289.891 214.536,290.241 214.552,290.727 215.038 " stroke="none" fill="#050504" fill-rule="evenodd"></path></g></svg>