<svg id="svg" version="1.1" xmlns="http://www.w3.org/2000/svg" xmlns:xlink="http://www.w3.org/1999/xlink" width="400" height="250.52631578947367" viewBox="0, 0, 400,250.52631578947367"><g id="svgg"><path id="path0" d="M144.361 2.264 L 144.361 3.526 120.050 3.455 L 95.739 3.383 95.739 8.584 L 95.739 13.784 89.474 13.784 L 83.208 13.784 83.208 19.048 L 83.208 24.311 78.509 24.311 L 73.810 24.310 73.896 25.564 C 73.944 26.253,73.877 26.817,73.746 26.817 C 72.618 26.817,72.626 26.516,72.719 63.693 L 72.807 98.622 70.802 98.622 C 69.699 98.622,68.714 98.734,68.613 98.872 C 68.512 99.010,68.427 104.057,68.425 110.088 L 68.421 121.053 57.832 121.088 C 52.008 121.107,46.820 121.097,46.303 121.066 L 45.363 121.010 45.363 126.292 L 45.363 131.574 33.772 131.639 L 22.180 131.704 22.113 138.033 L 22.047 144.361 15.785 144.361 L 9.524 144.361 9.524 150.627 L 9.524 156.892 4.762 156.892 L 0.000 156.892 0.000 169.549 L 0.000 182.206 4.762 182.206 L 9.524 182.206 9.524 188.471 L 9.524 194.737 23.183 194.737 L 36.842 194.737 36.842 188.471 L 36.842 182.206 41.609 182.206 L 46.376 182.206 46.354 176.754 C 46.317 167.837,45.385 168.454,58.926 168.435 C 70.025 168.419,69.820 168.381,69.973 170.496 L 70.050 171.554 71.366 171.630 L 72.682 171.705 72.682 187.498 C 72.682 197.413,72.774 203.463,72.929 203.753 C 73.723 205.238,73.935 205.263,85.415 205.263 L 95.959 205.263 96.113 204.198 C 96.197 203.612,96.232 201.216,96.191 198.872 L 96.115 194.612 90.297 194.486 C 85.148 194.375,84.426 194.309,84.031 193.913 C 83.604 193.486,83.584 189.721,83.584 109.202 L 83.584 24.937 89.850 24.812 L 96.115 24.687 96.183 19.435 C 96.233 15.618,96.335 14.130,96.559 13.988 C 96.954 13.737,299.487 13.722,299.534 13.972 C 299.553 14.076,299.638 16.529,299.722 19.424 L 299.875 24.687 305.690 24.812 C 309.988 24.905,311.590 25.022,311.830 25.263 C 312.094 25.527,312.155 32.503,312.155 62.064 L 312.155 98.540 311.452 99.144 L 310.749 99.749 293.741 99.749 C 284.386 99.749,276.554 99.818,276.336 99.902 C 275.612 100.179,275.759 108.366,276.497 108.883 C 277.428 109.535,321.048 109.470,321.640 108.815 C 321.992 108.426,322.055 107.707,322.055 104.067 C 322.055 99.895,322.072 99.758,322.660 99.074 L 323.264 98.371 328.484 98.289 C 332.125 98.232,333.760 98.118,333.890 97.913 C 333.993 97.751,334.080 95.420,334.083 92.732 C 334.087 88.750,334.304 86.194,334.661 85.927 C 334.689 85.906,337.419 85.821,340.727 85.739 L 346.742 85.589 346.809 79.844 C 346.853 76.121,346.974 73.983,347.153 73.767 C 347.669 73.145,370.834 73.291,371.169 73.918 C 371.342 74.242,371.429 81.861,371.429 96.867 C 371.429 110.623,371.521 119.504,371.667 119.777 C 372.182 120.740,373.777 121.014,379.381 121.102 C 383.682 121.170,384.769 121.257,385.052 121.558 C 385.702 122.247,385.890 180.179,385.245 180.975 C 384.758 181.577,384.737 181.579,378.155 181.744 C 374.524 181.834,371.526 181.919,371.491 181.932 C 371.457 181.944,371.429 184.655,371.429 187.955 C 371.429 192.482,371.352 194.004,371.115 194.155 C 370.943 194.264,368.490 194.412,365.664 194.483 L 360.526 194.612 360.395 200.215 C 360.267 205.713,360.253 205.827,359.678 206.293 C 359.105 206.757,357.675 206.766,299.784 206.705 L 240.476 206.642 239.975 205.639 C 239.534 204.756,239.464 204.030,239.389 199.557 L 239.304 194.477 233.750 194.544 L 228.195 194.612 228.070 200.125 C 227.943 205.715,227.806 206.526,226.929 206.863 C 226.707 206.948,197.556 207.018,162.150 207.018 C 110.924 207.018,97.733 207.082,97.571 207.331 C 97.460 207.503,97.361 211.930,97.353 217.168 C 97.336 227.784,97.247 228.894,96.372 229.468 C 95.725 229.892,75.332 229.839,71.955 229.404 C 69.168 229.046,69.320 229.737,69.173 216.765 C 69.066 207.338,68.993 205.711,68.672 205.505 C 68.455 205.367,66.122 205.291,63.158 205.327 L 58.020 205.388 58.020 224.311 L 58.020 243.233 77.945 243.233 L 97.870 243.233 97.937 236.905 L 98.004 230.576 103.262 230.576 L 108.521 230.576 108.521 229.589 C 108.521 228.629,108.547 228.600,109.461 228.524 L 110.401 228.446 110.469 223.246 L 110.536 218.045 114.792 218.045 L 119.048 218.045 119.048 224.311 L 119.048 230.576 125.309 230.576 L 131.570 230.576 131.637 236.905 L 131.704 243.233 150.564 243.297 L 169.424 243.362 169.424 230.703 L 169.424 218.045 204.131 218.045 L 238.838 218.045 238.905 224.248 L 238.972 230.451 245.296 230.518 L 251.620 230.585 251.687 236.909 L 251.754 243.233 269.549 243.233 L 287.343 243.233 287.408 230.639 L 287.473 218.045 292.734 218.045 L 297.995 218.045 297.995 224.311 L 297.995 230.576 304.256 230.576 L 310.518 230.576 310.585 236.905 L 310.652 243.233 329.511 243.297 L 348.371 243.362 348.371 230.708 L 348.371 218.054 354.699 217.987 L 361.028 217.920 361.095 212.724 L 361.163 207.529 366.358 207.461 L 371.554 207.393 371.621 201.065 L 371.688 194.737 378.952 194.737 L 386.216 194.737 386.216 188.471 L 386.216 182.206 391.479 182.206 L 396.742 182.206 396.742 151.629 L 396.742 121.053 391.479 121.053 L 386.216 121.053 386.216 96.867 L 386.216 72.682 378.952 72.682 L 371.689 72.682 371.622 67.481 L 371.554 62.281 358.960 62.216 L 346.366 62.151 346.366 67.412 L 346.366 72.673 340.038 72.740 L 333.709 72.807 333.642 79.010 L 333.575 85.213 328.316 85.213 L 323.058 85.213 323.058 54.762 L 323.058 24.311 317.794 24.311 L 312.531 24.311 312.531 19.048 L 312.531 13.784 306.266 13.784 L 300.000 13.784 300.000 7.393 L 300.000 1.003 222.180 1.003 L 144.361 1.003 144.361 2.264 M68.539 44.236 C 68.539 53.058,68.571 56.630,68.609 52.175 C 68.647 47.719,68.647 40.501,68.609 36.135 C 68.570 31.768,68.539 35.414,68.539 44.236 M69.040 44.361 C 69.040 53.252,69.072 56.889,69.110 52.444 C 69.149 47.998,69.149 40.724,69.110 36.278 C 69.072 31.833,69.040 35.470,69.040 44.361 M228.634 63.918 C 228.023 64.163,227.744 72.029,228.315 72.932 C 228.673 73.499,248.905 73.636,250.234 73.081 L 251.128 72.707 251.128 68.458 L 251.128 64.209 250.339 63.934 C 249.366 63.595,229.474 63.580,228.634 63.918 M254.450 74.638 C 253.082 74.737,253.099 74.656,253.187 80.702 L 253.258 85.589 257.895 85.589 L 262.531 85.589 262.531 80.284 C 262.531 77.366,262.475 74.925,262.406 74.860 C 262.249 74.712,255.885 74.535,254.450 74.638 M217.460 74.854 C 217.159 75.155,217.264 119.391,217.568 120.263 L 217.844 121.053 222.184 121.053 L 226.525 121.053 226.796 119.787 C 227.094 118.399,227.194 78.974,226.907 76.227 L 226.746 74.687 222.187 74.687 C 219.679 74.687,217.552 74.762,217.460 74.854 M264.474 87.384 C 264.240 87.478,264.160 88.598,264.160 91.775 C 264.160 96.451,264.417 97.568,265.594 98.016 C 266.547 98.378,272.823 98.309,273.108 97.932 C 274.002 96.753,274.371 87.690,273.538 87.370 C 273.067 87.189,264.926 87.202,264.474 87.384 M205.180 122.974 C 205.088 123.066,205.013 136.038,205.013 151.802 L 205.013 180.462 209.837 180.394 L 214.662 180.326 214.725 151.880 C 214.784 125.400,214.759 123.412,214.364 123.120 C 213.910 122.785,205.502 122.651,205.180 122.974 M58.396 132.236 C 69.318 132.338,69.436 132.347,70.108 133.068 C 70.389 133.370,70.975 133.579,71.682 133.629 L 72.807 133.709 72.872 145.426 L 72.937 157.143 71.818 157.143 C 70.959 157.143,70.554 157.288,70.073 157.769 L 69.446 158.396 53.194 158.396 C 40.888 158.396,36.869 158.469,36.642 158.697 C 36.417 158.921,36.341 161.747,36.341 169.866 C 36.341 176.879,36.249 180.907,36.081 181.219 C 35.791 181.762,11.367 181.991,10.526 181.459 C 10.137 181.213,9.925 157.911,10.308 157.528 C 10.394 157.442,13.158 157.348,16.448 157.320 L 22.431 157.268 22.556 151.378 C 22.625 148.139,22.773 145.348,22.884 145.175 C 23.042 144.933,25.586 144.862,34.205 144.862 C 40.319 144.862,45.501 144.794,45.719 144.710 C 46.066 144.577,46.115 143.781,46.115 138.361 C 46.115 131.608,46.095 131.710,47.368 131.965 C 47.851 132.062,52.813 132.184,58.396 132.236 M265.775 133.939 C 265.326 134.267,265.282 134.684,265.211 139.292 L 265.134 144.290 264.258 145.140 L 263.382 145.990 258.821 146.058 C 256.313 146.095,254.007 146.182,253.697 146.251 C 253.133 146.375,253.133 146.380,253.133 151.754 C 253.133 157.124,253.134 157.134,253.697 157.273 C 254.585 157.494,273.619 157.292,273.852 157.060 C 274.075 156.836,274.293 136.056,274.081 135.208 C 273.725 133.787,273.164 133.584,269.587 133.584 C 267.112 133.584,266.137 133.675,265.775 133.939 M348.283 134.900 C 348.196 135.623,348.124 138.196,348.122 140.616 C 348.120 146.509,348.727 145.974,341.938 146.054 C 338.928 146.090,336.210 146.177,335.897 146.248 L 335.329 146.378 335.396 151.823 L 335.464 157.268 345.990 157.340 C 351.779 157.380,356.876 157.348,357.316 157.269 C 358.753 157.012,358.897 155.906,358.897 145.172 L 358.897 135.910 358.239 134.935 C 357.308 133.557,357.453 133.592,352.729 133.588 L 348.441 133.584 348.283 134.900 M312.286 146.235 C 311.936 146.656,312.004 156.527,312.359 157.080 C 312.637 157.512,321.440 157.531,321.706 157.099 C 322.189 156.318,322.139 146.608,321.651 146.239 C 320.948 145.707,312.727 145.703,312.286 146.235 M265.348 170.969 L 264.155 171.495 264.220 182.165 L 264.286 192.835 265.248 193.035 C 265.777 193.145,284.330 193.206,306.476 193.171 L 346.742 193.108 346.807 182.417 C 346.847 175.830,346.778 171.476,346.625 171.076 L 346.378 170.426 341.103 170.426 L 335.827 170.426 335.583 171.069 C 335.448 171.423,335.338 173.726,335.338 176.189 L 335.338 180.665 334.678 181.185 C 334.033 181.692,333.766 181.704,323.042 181.704 L 312.066 181.704 311.547 181.044 C 311.067 180.433,311.027 180.052,311.024 175.969 C 311.019 170.137,311.412 170.456,304.192 170.437 L 299.988 170.426 299.743 171.069 C 299.609 171.423,299.499 173.735,299.499 176.207 C 299.499 182.416,301.051 181.735,287.102 181.649 L 275.722 181.579 274.954 180.843 L 274.185 180.107 274.185 175.788 L 274.185 171.469 273.341 170.948 C 272.102 170.182,267.102 170.195,265.348 170.969 M68.672 187.615 C 68.672 200.252,68.737 203.529,68.985 203.446 C 69.502 203.274,69.566 171.679,69.049 171.679 C 68.717 171.679,68.672 173.582,68.672 187.615 M69.792 187.469 C 69.792 196.222,69.824 199.803,69.862 195.426 C 69.900 191.049,69.900 183.888,69.862 179.511 C 69.824 175.135,69.792 178.716,69.792 187.469 M217.405 182.024 C 217.338 182.200,217.313 184.709,217.351 187.600 L 217.419 192.857 222.180 192.857 L 226.942 192.857 227.010 187.626 C 227.057 183.979,226.991 182.290,226.792 182.049 C 226.390 181.566,217.590 181.542,217.405 182.024 M156.156 217.053 C 158.115 218.449,157.908 227.371,155.873 229.214 C 155.137 229.879,134.187 230.113,133.200 229.467 C 131.886 228.606,131.610 218.469,132.865 217.133 L 133.421 216.541 144.429 216.541 C 155.112 216.541,155.458 216.556,156.156 217.053 M274.840 216.947 C 275.977 217.487,276.049 217.854,276.058 223.193 C 276.069 230.162,276.921 229.675,264.536 229.781 C 253.337 229.877,252.465 229.812,252.084 228.865 C 251.221 226.719,251.578 218.050,252.568 217.133 L 253.206 216.541 263.595 216.541 C 272.650 216.541,274.094 216.593,274.840 216.947 M334.723 217.157 C 335.972 218.405,335.551 228.547,334.215 229.423 C 333.501 229.890,313.379 230.039,312.187 229.586 C 310.905 229.098,310.368 218.701,311.547 217.202 L 312.066 216.541 323.087 216.541 L 334.108 216.541 334.723 217.157 " stroke="none" fill="#080707" fill-rule="evenodd"></path></g></svg>