<svg id="svg" version="1.1" xmlns="http://www.w3.org/2000/svg" xmlns:xlink="http://www.w3.org/1999/xlink" width="400" height="250.52631578947367" viewBox="0, 0, 400,250.52631578947367"><g id="svgg"><path id="path0" d="M110.526 7.393 L 110.526 13.784 104.261 13.784 L 97.995 13.784 97.995 19.048 L 97.995 24.311 90.602 24.311 L 83.208 24.311 83.208 66.416 L 83.208 108.521 72.682 108.521 L 62.155 108.521 62.155 103.258 L 62.155 97.995 37.970 97.995 L 13.784 97.995 13.784 103.258 L 13.784 108.521 7.391 108.521 L 0.998 108.521 1.063 121.115 L 1.128 133.709 12.719 133.774 L 24.311 133.840 24.311 140.103 L 24.311 146.366 42.101 146.366 L 59.891 146.366 59.958 152.569 L 60.025 158.772 71.617 158.837 L 83.208 158.902 83.208 169.551 L 83.208 180.201 77.945 180.201 L 72.682 180.201 72.682 186.462 L 72.682 192.723 66.353 192.790 L 60.025 192.857 59.958 199.060 L 59.891 205.263 54.784 205.263 C 50.359 205.263,49.657 205.316,49.526 205.660 C 49.327 206.178,49.327 242.444,49.526 242.962 C 49.662 243.318,51.475 243.358,67.445 243.358 L 85.213 243.358 85.213 236.967 L 85.213 230.576 92.607 230.576 L 100.000 230.576 100.000 224.311 L 100.000 218.045 105.263 218.045 L 110.526 218.045 110.526 224.311 L 110.526 230.576 116.792 230.576 L 123.058 230.576 123.061 236.654 C 123.064 239.997,123.155 242.874,123.265 243.047 C 123.423 243.296,127.387 243.348,142.246 243.297 L 161.028 243.233 161.093 230.639 L 161.158 218.045 194.739 218.045 L 228.321 218.045 228.321 222.912 C 228.321 228.621,228.310 228.571,229.601 228.571 C 230.572 228.571,230.576 228.576,230.576 229.574 L 230.576 230.576 235.835 230.576 L 241.094 230.576 241.161 236.905 L 241.228 243.233 260.025 243.233 L 278.822 243.233 278.887 230.639 L 278.952 218.045 284.213 218.045 L 289.474 218.045 289.474 224.311 L 289.474 230.576 294.733 230.576 L 299.991 230.576 300.058 236.905 L 300.125 243.233 318.985 243.297 L 337.845 243.362 337.845 230.706 L 337.845 218.050 350.439 217.985 L 363.033 217.920 363.100 212.719 L 363.168 207.519 369.429 207.519 L 375.689 207.519 375.689 201.128 L 375.689 194.737 380.952 194.737 L 386.216 194.737 386.216 188.471 L 386.216 182.206 393.108 182.206 L 400.000 182.206 400.000 151.629 L 400.000 121.053 393.108 121.053 L 386.216 121.053 386.216 96.867 L 386.216 72.682 380.952 72.682 L 375.689 72.682 375.689 67.419 L 375.689 62.155 362.030 62.155 L 348.371 62.155 348.371 67.419 L 348.371 72.682 343.108 72.682 L 337.845 72.682 337.845 48.496 L 337.845 24.311 332.581 24.311 L 327.318 24.311 327.318 19.048 L 327.318 13.784 321.057 13.784 L 314.796 13.784 314.729 7.456 L 314.662 1.128 212.594 1.065 L 110.526 1.002 110.526 7.393 M313.534 14.787 C 313.999 15.252,314.035 15.622,314.035 19.897 C 314.035 26.082,313.450 25.547,320.298 25.626 L 325.683 25.689 326.062 26.441 C 326.394 27.100,326.449 31.613,326.506 62.894 C 326.558 90.968,326.638 98.637,326.882 98.792 C 327.454 99.156,335.519 99.033,336.444 98.647 C 337.678 98.131,337.690 98.076,337.705 92.493 L 337.719 87.350 338.471 86.971 C 339.045 86.681,340.367 86.572,344.047 86.510 C 350.176 86.406,349.624 87.059,349.624 79.903 C 349.624 74.772,349.652 74.439,350.109 74.194 C 351.153 73.636,373.506 73.924,374.086 74.503 C 374.158 74.575,374.213 84.524,374.208 96.611 C 374.199 118.943,374.269 120.814,375.134 121.491 C 375.420 121.715,376.807 121.805,379.998 121.805 C 386.161 121.805,385.464 120.114,385.464 135.046 C 385.464 141.778,385.533 154.720,385.618 163.806 C 385.754 178.422,385.728 180.384,385.388 180.827 C 385.031 181.292,384.673 181.332,380.418 181.383 C 373.779 181.462,374.192 180.973,374.188 188.754 C 374.185 194.049,374.745 193.587,368.195 193.690 C 361.606 193.794,362.155 193.334,362.155 198.752 C 362.155 202.947,361.878 205.471,361.384 205.776 C 361.171 205.908,243.663 205.934,243.057 205.803 C 242.599 205.703,242.359 203.498,242.357 199.390 C 242.355 193.337,242.749 193.733,236.736 193.738 C 230.405 193.743,231.078 193.164,231.078 198.606 C 231.078 202.090,230.985 203.441,230.685 204.321 C 229.957 206.458,235.909 206.266,170.615 206.266 L 112.609 206.266 112.132 205.739 C 111.700 205.263,111.647 204.710,111.577 200.040 C 111.476 193.340,112.164 193.985,105.113 193.985 C 99.625 193.985,99.520 193.975,99.137 193.428 C 98.732 192.850,98.565 28.323,98.967 26.441 L 99.127 25.689 104.890 25.623 C 112.174 25.538,111.516 26.135,111.523 19.603 C 111.529 14.828,111.536 14.768,112.093 14.544 C 113.452 13.998,312.985 14.238,313.534 14.787 M231.892 63.555 L 231.078 64.197 231.078 68.784 C 231.078 72.355,231.154 73.435,231.420 73.656 C 231.666 73.860,234.914 73.922,243.011 73.875 L 254.261 73.810 254.330 68.922 C 254.379 65.488,254.311 63.867,254.100 63.471 L 253.800 62.907 243.253 62.910 L 232.707 62.913 231.892 63.555 M219.599 74.486 C 219.280 74.805,219.135 120.587,219.450 121.408 C 219.637 121.895,228.362 122.003,229.398 121.531 C 230.819 120.884,230.827 120.744,230.827 96.707 C 230.827 79.992,230.756 74.716,230.526 74.486 C 230.101 74.061,220.024 74.061,219.599 74.486 M254.950 74.468 C 254.719 74.703,254.637 76.190,254.637 80.116 C 254.637 87.085,253.999 86.466,261.185 86.466 L 266.636 86.466 266.807 85.326 C 267.093 83.415,266.817 74.987,266.455 74.625 C 265.996 74.165,255.391 74.020,254.950 74.468 M267.335 86.884 C 266.772 87.447,267.174 97.773,267.783 98.382 C 268.571 99.170,276.798 99.357,277.551 98.604 C 278.191 97.963,278.134 87.717,277.487 87.132 C 277.013 86.703,267.742 86.477,267.335 86.884 M295.865 99.249 C 286.216 99.322,278.290 99.408,278.253 99.440 C 278.215 99.472,278.215 101.658,278.253 104.297 L 278.321 109.094 279.006 109.606 C 279.681 110.109,280.022 110.119,300.310 110.215 C 324.780 110.330,325.233 110.312,325.984 109.166 C 326.600 108.227,326.820 101.070,326.276 99.687 L 326.004 98.997 319.706 99.057 C 316.243 99.089,305.514 99.176,295.865 99.249 M48.190 110.186 C 50.227 110.384,50.298 110.576,50.413 116.205 C 50.541 122.451,49.105 121.748,61.949 121.848 L 72.476 121.930 72.955 122.521 C 73.541 123.245,73.696 131.968,73.133 132.531 C 72.697 132.967,26.301 132.967,25.865 132.531 C 25.653 132.320,25.564 130.902,25.564 127.757 C 25.564 123.416,25.309 121.811,24.618 121.802 C 24.518 121.801,23.252 121.756,21.805 121.704 C 20.357 121.651,18.293 121.595,17.218 121.581 L 15.263 121.554 14.899 120.685 C 14.474 119.666,14.378 111.979,14.778 110.927 C 15.012 110.309,15.089 110.291,17.722 110.222 C 23.180 110.078,46.786 110.050,48.190 110.186 M206.800 122.761 C 206.335 123.414,206.306 123.756,206.418 127.335 C 206.484 129.462,206.597 142.253,206.669 155.759 C 206.758 172.444,206.885 180.417,207.065 180.633 C 207.343 180.968,217.820 181.119,218.651 180.800 C 219.010 180.663,219.048 177.857,219.048 151.596 L 219.048 122.544 218.405 122.300 C 218.051 122.165,215.408 122.055,212.532 122.055 L 207.302 122.055 206.800 122.761 M267.980 133.330 C 267.758 133.685,267.669 135.331,267.669 139.067 C 267.669 146.095,268.314 145.453,261.088 145.614 C 253.931 145.774,254.637 145.111,254.637 151.672 L 254.637 156.916 255.300 157.531 L 255.963 158.145 266.340 158.145 C 278.621 158.145,278.074 158.251,278.305 155.831 C 278.387 154.967,278.424 149.730,278.387 144.193 L 278.320 134.124 277.713 133.478 L 277.106 132.832 272.698 132.832 C 268.572 132.832,268.271 132.864,267.980 133.330 M350.186 133.330 C 349.963 133.686,349.875 135.351,349.875 139.164 C 349.875 146.216,350.539 145.527,343.615 145.656 C 336.705 145.785,337.382 145.088,337.570 151.877 L 337.719 157.263 338.471 157.641 C 339.100 157.958,341.002 158.032,350.096 158.095 L 360.969 158.170 361.562 157.613 L 362.155 157.055 362.155 145.501 C 362.155 135.449,362.105 133.874,361.765 133.389 C 361.188 132.565,350.697 132.511,350.186 133.330 M83.955 133.617 C 84.573 134.131,84.577 134.164,84.673 139.234 L 84.769 144.334 83.926 144.848 C 82.704 145.592,75.073 145.632,74.168 144.898 C 73.532 144.383,73.370 134.139,73.986 133.397 C 74.488 132.792,83.194 132.984,83.955 133.617 M314.178 145.757 C 313.844 146.092,313.784 146.996,313.784 151.767 L 313.784 157.382 314.415 157.795 C 315.491 158.500,325.117 158.202,325.879 157.441 C 326.768 156.551,326.910 147.015,326.048 146.024 L 325.474 145.363 320.023 145.363 C 315.402 145.363,314.512 145.423,314.178 145.757 M267.677 170.160 C 266.890 171.703,266.883 192.697,267.669 193.484 C 268.166 193.981,268.505 193.985,308.396 193.985 C 348.287 193.985,348.626 193.981,349.123 193.484 C 349.887 192.720,349.893 171.920,349.130 170.238 L 348.646 169.173 344.119 169.173 L 339.592 169.173 338.655 170.030 L 337.719 170.887 337.594 175.607 L 337.469 180.326 336.591 180.764 C 335.388 181.365,315.209 181.441,314.396 180.848 C 313.951 180.523,313.899 180.072,313.784 175.522 C 313.676 171.216,313.597 170.459,313.192 169.862 L 312.724 169.173 308.148 169.173 C 300.923 169.173,301.253 168.861,301.253 175.698 C 301.253 181.856,302.500 181.203,290.739 181.203 C 281.500 181.203,278.930 181.032,278.534 180.391 C 278.442 180.242,278.357 178.080,278.344 175.586 C 278.323 171.488,278.271 170.968,277.806 170.175 L 277.291 169.298 272.739 169.230 L 268.186 169.162 267.677 170.160 M219.450 181.599 C 219.062 182.613,219.290 192.938,219.710 193.359 C 220.160 193.808,230.047 193.847,230.493 193.401 C 230.608 193.286,230.736 190.733,230.778 187.728 L 230.854 182.263 229.996 181.733 C 228.844 181.021,219.717 180.905,219.450 181.599 M98.499 206.830 C 99.081 207.785,99.251 215.210,98.717 216.382 L 98.436 216.999 93.391 217.142 C 87.307 217.315,85.319 217.491,84.992 217.884 C 84.856 218.048,84.710 220.162,84.666 222.582 C 84.587 226.963,84.583 226.987,83.884 227.903 L 83.183 228.822 73.734 228.820 C 60.702 228.818,61.902 230.014,61.924 217.043 C 61.933 211.873,62.026 207.426,62.130 207.159 C 62.548 206.092,63.185 206.054,81.019 206.034 L 98.002 206.015 98.499 206.830 M146.899 217.708 C 147.470 218.395,147.386 226.932,146.798 228.008 L 146.353 228.822 135.942 228.822 C 129.256 228.822,125.358 228.729,125.047 228.563 C 123.184 227.566,122.855 219.275,124.617 217.732 C 125.364 217.078,146.357 217.055,146.899 217.708 M266.565 217.836 C 266.907 218.178,267.004 218.969,267.107 222.222 C 267.325 229.165,268.022 228.825,253.592 228.823 L 243.149 228.822 242.731 227.727 C 242.178 226.280,242.261 218.385,242.837 217.693 C 243.372 217.050,265.914 217.185,266.565 217.836 M325.614 217.744 C 326.550 218.678,326.105 228.009,325.102 228.480 C 324.560 228.736,307.012 228.917,304.314 228.695 C 301.372 228.454,301.381 228.471,301.400 222.777 C 301.416 218.091,301.507 217.683,302.587 217.463 C 304.038 217.167,325.297 217.427,325.614 217.744 " stroke="none" fill="#0c0a07" fill-rule="evenodd"></path></g></svg>