<svg id="svg" version="1.1" xmlns="http://www.w3.org/2000/svg" xmlns:xlink="http://www.w3.org/1999/xlink" width="400" height="250.52631578947367" viewBox="0, 0, 400,250.52631578947367"><g id="svgg"><path id="path0" d="M106.433 1.170 C 106.341 1.261,106.266 4.137,106.266 7.561 L 106.266 13.784 100.000 13.784 L 93.734 13.784 93.734 19.048 L 93.734 24.311 86.341 24.311 L 78.947 24.311 78.947 66.405 L 78.947 108.500 68.985 108.602 C 63.506 108.658,58.741 108.748,58.396 108.801 L 57.769 108.897 57.702 103.446 L 57.634 97.995 52.506 97.995 L 47.377 97.995 47.310 91.667 L 47.243 85.338 33.709 85.338 L 20.175 85.338 20.108 91.667 L 20.042 97.995 14.780 97.995 L 9.519 97.995 9.584 110.589 L 9.649 123.183 14.845 123.251 L 20.040 123.318 20.108 128.514 L 20.175 133.709 26.378 133.776 L 32.581 133.843 32.581 140.105 L 32.581 146.366 44.236 146.366 L 55.890 146.366 55.890 152.632 L 55.890 158.897 67.419 158.897 L 78.947 158.897 78.947 169.549 L 78.947 180.201 73.684 180.201 L 68.421 180.201 68.421 186.466 L 68.421 192.732 62.155 192.732 L 55.890 192.732 55.890 198.997 L 55.890 205.263 50.625 205.263 L 45.360 205.263 45.424 224.248 L 45.489 243.233 63.221 243.297 L 80.952 243.362 80.952 236.969 L 80.952 230.576 88.346 230.576 L 95.739 230.576 95.739 224.311 L 95.739 218.045 101.000 218.045 L 106.261 218.045 106.326 230.639 L 106.391 243.233 125.251 243.297 L 144.110 243.362 144.110 236.969 L 144.110 230.576 149.373 230.576 L 154.637 230.576 154.637 229.588 C 154.637 228.605,154.642 228.600,155.702 228.523 L 156.767 228.446 156.835 223.246 L 156.902 218.045 190.604 218.045 L 224.306 218.045 224.371 230.639 L 224.436 243.233 244.298 243.297 L 264.160 243.361 264.160 236.969 L 264.160 230.576 269.424 230.576 L 274.687 230.576 274.687 224.311 L 274.687 218.045 279.950 218.045 L 285.213 218.045 285.213 224.311 L 285.213 230.576 290.472 230.576 L 295.731 230.576 295.798 236.905 L 295.865 243.233 314.724 243.297 L 333.584 243.362 333.584 225.440 L 333.584 207.519 346.241 207.519 L 358.897 207.519 358.897 201.128 L 358.897 194.737 365.288 194.737 L 371.679 194.737 371.679 188.476 L 371.679 182.216 376.880 182.148 L 382.080 182.080 382.148 176.880 L 382.216 171.679 383.213 171.679 L 384.211 171.679 384.211 170.551 L 384.211 169.424 390.476 169.424 L 396.742 169.424 396.742 139.975 L 396.742 110.526 395.739 110.526 L 394.737 110.526 394.737 109.524 L 394.737 108.521 388.472 108.521 L 382.208 108.521 382.144 85.401 L 382.080 62.281 376.884 62.213 L 371.688 62.145 371.621 55.958 L 371.554 49.772 370.927 49.598 C 370.109 49.370,345.679 49.370,344.862 49.598 L 344.236 49.772 344.236 55.964 L 344.236 62.156 340.038 62.155 L 335.840 62.155 335.840 61.153 L 335.840 60.150 334.712 60.150 L 333.584 60.150 333.584 42.231 L 333.584 24.311 328.321 24.311 L 323.058 24.311 323.058 19.048 L 323.058 13.784 316.792 13.784 L 310.526 13.784 310.526 7.393 L 310.526 1.003 208.563 1.003 C 152.483 1.003,106.525 1.078,106.433 1.170 M309.384 14.843 C 309.702 15.296,309.774 16.230,309.774 19.872 C 309.774 25.820,309.299 25.309,314.858 25.332 C 321.062 25.357,321.598 25.450,321.978 26.566 C 322.203 27.225,322.281 34.690,322.292 56.558 C 322.299 72.572,322.374 85.852,322.458 86.070 C 322.721 86.755,331.655 86.647,332.808 85.944 L 333.661 85.424 333.513 80.587 C 333.298 73.579,332.951 73.935,339.991 73.935 C 345.826 73.935,345.363 74.431,345.363 68.170 C 345.363 64.608,345.445 63.404,345.711 63.023 C 346.069 62.512,367.324 62.227,367.823 62.727 C 367.922 62.826,368.198 62.907,368.435 62.907 C 368.673 62.907,369.131 63.121,369.455 63.383 L 370.043 63.859 370.102 86.355 L 370.162 108.851 370.714 109.438 C 371.252 110.011,371.372 110.025,375.727 110.025 L 380.189 110.025 380.633 110.703 C 381.075 111.377,381.609 148.549,381.395 163.717 L 381.328 168.411 380.659 169.079 L 379.990 169.748 375.706 169.742 L 371.421 169.736 370.798 170.476 C 370.204 171.182,370.174 171.375,370.153 174.643 C 370.110 181.442,370.409 181.153,363.385 181.184 C 357.569 181.209,358.057 180.627,357.895 187.734 C 357.807 191.573,357.678 193.301,357.463 193.516 C 357.222 193.755,344.310 193.813,298.064 193.780 C 265.564 193.757,238.845 193.822,238.689 193.924 C 238.499 194.049,238.372 195.893,238.302 199.558 C 238.207 204.580,238.158 205.059,237.681 205.698 L 237.164 206.391 173.031 206.458 C 122.234 206.511,108.774 206.460,108.305 206.212 C 107.375 205.722,107.262 205.032,107.256 199.797 C 107.249 193.388,107.894 193.985,100.973 193.985 C 95.670 193.985,95.493 193.969,94.996 193.435 L 94.484 192.886 94.548 109.579 L 94.612 26.271 95.203 25.792 C 95.745 25.354,96.251 25.313,101.150 25.313 L 106.505 25.313 106.905 24.703 C 107.222 24.218,107.297 23.457,107.267 21.006 C 107.192 14.933,107.204 14.797,107.832 14.544 C 108.165 14.410,149.522 14.311,208.695 14.302 L 308.994 14.286 309.384 14.843 M227.757 51.009 L 227.068 51.394 227.068 56.415 C 227.068 63.222,225.479 62.406,238.737 62.406 L 249.887 62.406 250.132 61.763 C 250.698 60.273,250.433 51.491,249.812 51.187 C 248.810 50.696,228.607 50.533,227.757 51.009 M215.349 63.656 C 215.021 64.181,214.867 108.787,215.190 109.629 C 215.321 109.970,215.981 110.025,219.974 110.025 L 224.607 110.025 225.581 109.336 L 226.556 108.647 226.561 86.317 C 226.566 64.999,226.546 63.969,226.108 63.573 C 225.345 62.882,215.786 62.956,215.349 63.656 M250.811 63.308 C 250.415 63.704,250.600 72.783,251.017 73.378 C 251.405 73.933,260.724 74.276,262.010 73.783 C 262.619 73.549,262.603 64.135,261.992 63.627 C 261.538 63.250,251.165 62.954,250.811 63.308 M263.221 74.351 C 262.563 74.617,262.795 85.415,263.471 85.979 C 264.385 86.741,273.036 86.708,273.446 85.941 C 273.874 85.142,273.670 75.147,273.215 74.599 C 272.878 74.194,264.147 73.977,263.221 74.351 M274.197 87.079 C 273.874 87.468,273.982 97.197,274.319 98.060 C 274.625 98.843,275.496 98.872,298.427 98.872 C 320.707 98.872,321.046 98.865,321.532 98.371 C 322.056 97.839,322.446 87.784,321.972 87.030 C 321.656 86.528,274.614 86.576,274.197 87.079 M45.983 99.561 C 46.053 99.872,46.140 104.698,46.175 110.287 C 46.235 119.527,46.281 120.511,46.685 121.127 L 47.129 121.805 63.101 121.812 C 75.261 121.819,79.168 121.893,79.470 122.126 C 80.415 122.851,80.451 123.291,80.451 133.925 L 80.451 144.325 79.791 144.844 C 78.843 145.590,59.059 145.664,58.180 144.925 C 57.687 144.510,57.654 144.203,57.589 139.264 L 57.519 134.041 56.816 133.436 L 56.112 132.832 45.238 132.832 C 32.119 132.832,33.566 133.492,33.766 127.600 C 33.885 124.062,33.845 123.304,33.504 122.645 L 33.101 121.865 27.581 121.763 C 23.592 121.688,21.973 121.572,21.745 121.344 C 21.293 120.892,21.123 100.789,21.562 99.729 L 21.865 98.997 33.860 98.997 L 45.855 98.997 45.983 99.561 M202.833 111.090 C 202.275 112.126,202.270 167.298,202.827 168.190 C 203.197 168.781,213.909 168.948,214.486 168.371 C 215.084 167.773,214.903 110.857,214.302 110.535 C 214.012 110.380,211.700 110.276,208.544 110.276 L 203.271 110.276 202.833 111.090 M263.878 122.218 C 263.620 122.528,263.514 123.805,263.456 127.310 C 263.381 131.847,263.361 132.008,262.770 132.696 L 262.162 133.404 256.782 133.431 C 252.738 133.452,251.323 133.539,251.078 133.784 C 250.516 134.345,250.470 144.274,251.027 144.889 C 251.622 145.547,272.189 145.631,273.446 144.981 L 274.185 144.599 274.185 133.862 C 274.185 123.379,274.173 123.110,273.666 122.465 L 273.147 121.805 268.684 121.805 C 264.843 121.805,264.174 121.862,263.878 122.218 M345.878 122.744 C 345.734 123.261,345.616 125.617,345.615 127.980 C 345.614 133.828,346.050 133.406,339.950 133.466 C 332.881 133.537,333.264 133.143,333.383 140.226 L 333.459 144.737 334.336 145.036 C 334.960 145.249,338.363 145.339,346.134 145.349 L 357.055 145.363 357.600 144.783 C 358.435 143.895,358.459 123.701,357.627 122.532 L 357.109 121.805 351.624 121.805 L 346.139 121.805 345.878 122.744 M309.962 133.451 C 309.335 134.313,309.296 144.348,309.918 144.970 C 310.542 145.594,321.112 145.554,321.742 144.925 C 322.379 144.287,322.173 133.914,321.509 133.252 C 321.141 132.885,320.416 132.833,315.745 132.840 L 310.401 132.848 309.962 133.451 M263.471 158.382 L 262.907 158.852 262.907 169.637 L 262.907 180.423 263.464 180.813 C 264.320 181.412,344.370 181.408,344.970 180.809 C 345.635 180.144,345.558 158.900,344.888 158.294 C 344.237 157.705,335.415 157.792,334.211 158.399 L 333.459 158.778 333.390 163.203 L 333.322 167.628 332.601 168.401 L 331.879 169.173 321.084 169.173 L 310.289 169.173 309.906 168.433 C 309.605 167.852,309.524 166.739,309.524 163.209 C 309.524 159.183,309.477 158.682,309.065 158.310 C 308.389 157.697,298.543 157.689,297.610 158.300 L 296.992 158.704 296.992 163.124 C 296.991 167.088,296.939 167.628,296.494 168.358 L 295.997 169.173 286.282 169.172 C 273.187 169.170,274.185 169.666,274.185 163.164 L 274.185 158.934 273.525 158.414 C 272.564 157.658,264.370 157.632,263.471 158.382 M215.282 169.816 C 214.915 170.782,214.964 180.277,215.338 180.652 C 215.713 181.026,224.958 181.075,225.924 180.708 L 226.566 180.464 226.566 176.045 L 226.566 171.626 225.758 170.587 C 224.616 169.119,224.871 169.181,219.981 169.177 L 215.526 169.173 215.282 169.816 M227.381 181.369 C 227.143 181.465,227.068 182.868,227.068 187.185 L 227.068 192.874 227.796 193.304 C 228.835 193.918,237.094 193.948,237.701 193.340 C 238.342 192.700,238.285 182.204,237.637 181.618 C 237.189 181.212,228.304 180.997,227.381 181.369 M79.894 194.375 C 80.435 194.754,80.451 194.896,80.451 199.350 C 80.451 206.240,79.732 205.673,88.781 205.918 C 95.163 206.091,94.737 205.689,94.737 211.551 C 94.737 214.128,94.628 216.005,94.456 216.382 L 94.175 216.998 89.256 217.142 C 83.444 217.313,81.170 217.498,80.827 217.828 C 80.687 217.962,80.521 220.110,80.451 222.676 C 80.337 226.859,80.277 227.347,79.798 227.989 L 79.269 228.697 69.544 228.762 L 59.820 228.828 58.729 227.690 L 57.638 226.551 57.704 216.874 L 57.769 207.197 58.476 206.669 C 59.118 206.189,59.606 206.129,63.794 206.015 C 69.800 205.852,69.276 206.435,69.380 199.806 C 69.429 196.687,69.566 194.491,69.724 194.301 C 70.147 193.792,79.155 193.858,79.894 194.375 M321.576 206.732 C 322.242 207.555,322.320 225.894,321.665 227.531 C 321.154 228.809,321.080 228.817,309.496 228.820 C 296.189 228.823,297.006 229.199,297.001 223.058 C 296.996 216.942,296.593 217.293,303.617 217.293 L 308.714 217.293 309.119 216.675 C 309.452 216.168,309.524 215.294,309.524 211.764 C 309.524 208.128,309.591 207.357,309.962 206.730 L 310.399 205.988 315.749 206.064 C 321.025 206.139,321.104 206.148,321.576 206.732 M142.755 217.820 C 143.450 218.588,143.477 226.747,142.788 228.008 L 142.343 228.822 131.698 228.822 C 118.435 228.822,119.453 229.365,119.524 222.332 C 119.568 217.920,119.577 217.870,120.389 217.542 C 121.730 217.001,142.244 217.256,142.755 217.820 M262.335 217.866 C 262.987 218.518,263.009 226.865,262.362 227.855 C 261.770 228.760,261.010 228.822,250.529 228.820 C 239.377 228.817,239.004 228.782,238.484 227.686 C 237.888 226.431,237.918 218.406,238.521 217.740 C 239.160 217.033,261.621 217.152,262.335 217.866 " stroke="none" fill="#060605" fill-rule="evenodd"></path></g></svg>