<svg id="svg" version="1.1" xmlns="http://www.w3.org/2000/svg" xmlns:xlink="http://www.w3.org/1999/xlink" width="400" height="250.52631578947367" viewBox="0, 0, 400,250.52631578947367"><g id="svgg"><path id="path0" d="M106.433 1.170 C 106.341 1.261,106.266 3.630,106.266 6.433 L 106.266 11.529 100.000 11.529 L 93.734 11.529 93.734 17.920 L 93.734 24.311 86.341 24.311 L 78.947 24.311 78.947 66.416 L 78.947 108.521 74.691 108.521 L 70.435 108.521 70.368 102.193 L 70.301 95.865 64.098 95.798 L 57.895 95.731 57.895 89.469 L 57.895 83.208 33.709 83.208 L 9.524 83.208 9.524 102.130 L 9.524 121.053 14.783 121.053 L 20.042 121.053 20.108 127.381 L 20.175 133.709 26.373 133.776 L 32.571 133.843 32.639 139.039 L 32.707 144.236 39.035 144.303 L 45.363 144.370 45.363 150.631 L 45.363 156.892 56.892 156.892 L 68.421 156.892 68.421 163.158 L 68.421 169.424 73.684 169.424 L 78.947 169.424 78.947 180.075 L 78.947 190.727 73.684 190.727 L 68.421 190.727 68.421 196.992 L 68.421 203.258 62.155 203.258 L 55.890 203.258 55.890 221.178 L 55.890 239.098 56.892 239.098 L 57.895 239.098 57.895 240.100 L 57.895 241.103 83.208 241.103 L 108.521 241.103 108.521 234.841 L 108.521 228.580 114.724 228.513 L 120.927 228.446 120.995 223.246 L 121.063 218.045 125.318 218.045 L 129.574 218.045 129.574 229.574 L 129.574 241.103 148.496 241.103 L 167.419 241.103 167.419 234.837 L 167.419 228.571 173.684 228.571 L 179.950 228.571 179.950 223.308 L 179.950 218.045 208.391 218.045 L 236.832 218.045 236.900 223.246 L 236.967 228.446 243.166 228.513 L 249.365 228.580 249.432 234.779 L 249.499 240.977 267.356 241.042 L 285.213 241.106 285.213 240.116 C 285.213 239.131,285.218 239.126,286.278 239.049 L 287.343 238.972 287.409 228.509 L 287.474 218.045 291.602 218.045 L 295.729 218.045 295.797 223.246 L 295.865 228.446 302.193 228.513 L 308.521 228.580 308.521 234.841 L 308.521 241.103 321.053 241.103 L 333.584 241.103 333.584 234.841 L 333.584 228.580 339.912 228.513 L 346.241 228.446 346.308 223.246 L 346.376 218.045 352.637 218.045 L 358.897 218.045 358.897 211.654 L 358.897 205.263 365.288 205.263 L 371.679 205.263 371.679 199.003 L 371.679 192.742 376.880 192.674 L 382.080 192.607 382.148 187.406 L 382.216 182.206 383.213 182.206 L 384.211 182.206 384.211 181.078 L 384.211 179.950 390.476 179.950 L 396.742 179.950 396.742 150.501 L 396.742 121.053 395.739 121.053 L 394.737 121.053 394.737 120.050 L 394.737 119.048 388.472 119.048 L 382.208 119.048 382.144 95.927 L 382.080 72.807 376.884 72.739 L 371.688 72.672 371.621 66.474 L 371.554 60.276 357.895 60.276 L 344.236 60.276 344.236 66.479 L 344.236 72.682 340.038 72.682 L 335.840 72.682 335.840 71.679 L 335.840 70.677 334.712 70.677 L 333.584 70.677 333.584 47.494 L 333.584 24.311 328.321 24.311 L 323.058 24.311 323.058 17.920 L 323.058 11.529 316.792 11.529 L 310.526 11.529 310.526 6.266 L 310.526 1.003 208.563 1.003 C 152.483 1.003,106.525 1.078,106.433 1.170 M308.870 13.417 C 309.542 14.089,309.771 15.563,309.803 19.424 C 309.820 21.491,309.906 23.521,309.994 23.935 L 310.155 24.687 315.989 24.812 C 320.807 24.916,321.865 25.003,322.061 25.313 C 322.207 25.545,322.301 39.149,322.305 60.777 C 322.309 80.075,322.382 96.125,322.467 96.443 L 322.622 97.021 327.558 96.944 C 333.859 96.846,333.397 97.225,333.381 92.156 C 333.356 84.144,333.047 84.510,339.857 84.480 C 345.844 84.454,345.363 84.953,345.363 78.765 C 345.363 72.178,343.898 72.932,356.696 72.932 C 368.275 72.932,369.449 73.059,369.944 74.362 C 370.079 74.716,370.175 84.223,370.175 97.146 L 370.175 119.321 370.791 119.936 C 371.397 120.542,371.470 120.551,375.785 120.551 C 380.679 120.551,380.806 120.592,381.042 122.238 C 381.117 122.758,381.212 135.727,381.253 151.059 L 381.328 178.934 380.651 179.612 L 379.974 180.290 375.790 180.308 L 371.606 180.326 370.891 181.031 L 370.175 181.736 370.175 186.226 L 370.175 190.715 369.498 191.160 C 368.918 191.540,368.088 191.616,363.732 191.689 C 357.307 191.796,357.895 191.148,357.895 198.128 C 357.895 202.188,357.816 203.521,357.554 203.879 C 357.030 204.596,238.949 204.581,238.425 203.864 C 238.177 203.525,238.095 202.100,238.095 198.128 C 238.095 191.114,238.632 191.728,232.505 191.733 C 226.340 191.738,226.958 191.066,226.866 197.863 L 226.790 203.515 226.126 203.950 C 225.500 204.360,221.962 204.393,166.636 204.511 C 134.282 204.580,107.717 204.730,107.602 204.845 C 107.487 204.959,107.337 207.451,107.268 210.383 C 107.108 217.207,107.774 216.541,101.103 216.541 L 95.751 216.541 95.320 217.199 C 94.958 217.752,94.887 218.524,94.876 222.068 C 94.863 225.948,94.821 226.335,94.334 226.987 L 93.806 227.694 82.136 227.759 L 70.466 227.824 69.945 227.162 C 69.268 226.301,69.111 205.333,69.778 204.780 C 70.041 204.562,74.794 204.482,88.294 204.470 C 98.283 204.461,106.610 204.357,106.799 204.240 C 107.302 203.929,107.302 193.000,106.799 192.394 C 106.498 192.032,105.770 191.980,101.051 191.980 C 95.847 191.980,95.625 191.960,95.066 191.435 L 94.486 190.890 94.486 108.241 L 94.486 25.592 95.043 25.202 C 95.506 24.878,96.521 24.812,101.028 24.812 C 107.753 24.812,107.086 25.450,107.224 18.892 C 107.326 14.038,107.359 13.749,107.857 13.401 C 108.674 12.828,308.297 12.844,308.870 13.417 M227.757 61.695 L 227.068 61.947 227.068 66.882 C 227.068 70.944,227.137 71.917,227.458 72.375 L 227.848 72.932 238.837 72.932 L 249.826 72.932 250.101 72.143 C 250.610 70.681,250.462 62.311,249.918 61.818 C 249.376 61.329,229.069 61.215,227.757 61.695 M215.328 74.323 C 215.019 75.001,214.892 118.854,215.196 119.987 C 215.346 120.547,215.384 120.551,220.071 120.551 L 224.795 120.551 225.681 119.774 L 226.566 118.996 226.566 96.730 L 226.566 74.465 226.009 74.074 C 225.551 73.753,224.580 73.684,220.536 73.684 L 215.619 73.684 215.328 74.323 M250.927 73.985 C 250.344 74.568,250.521 83.353,251.128 83.960 C 251.644 84.476,259.480 84.733,261.623 84.305 L 262.406 84.148 262.406 79.279 L 262.406 74.411 261.537 74.047 C 260.397 73.571,251.394 73.518,250.927 73.985 M263.346 84.885 C 262.945 84.989,262.907 85.473,262.907 90.517 C 262.907 97.563,262.387 96.973,268.615 96.984 L 273.195 96.992 273.463 96.303 C 273.868 95.259,273.651 85.651,273.210 85.121 C 272.882 84.725,264.706 84.529,263.346 84.885 M45.865 97.494 C 46.334 97.963,46.366 98.329,46.366 103.240 C 46.366 109.864,45.850 109.273,51.628 109.273 C 56.075 109.273,56.106 109.277,56.873 109.922 L 57.644 110.571 57.644 114.931 L 57.644 119.291 58.584 119.900 C 59.463 120.469,59.792 120.514,63.659 120.605 C 69.443 120.740,69.424 120.718,69.424 127.037 C 69.424 132.537,69.201 132.322,74.887 132.327 L 79.222 132.331 79.837 132.994 C 80.741 133.970,80.797 141.830,79.906 142.778 L 79.361 143.358 69.495 143.358 C 60.091 143.358,59.583 143.335,58.637 142.852 L 57.644 142.346 57.644 137.987 L 57.644 133.629 56.873 132.980 C 56.108 132.336,56.066 132.331,51.753 132.331 C 47.487 132.331,47.126 132.273,46.585 131.498 C 46.568 131.474,46.484 129.306,46.397 126.680 C 46.267 122.712,46.166 121.793,45.796 121.229 L 45.352 120.551 39.975 120.551 L 34.598 120.551 34.202 119.946 C 33.889 119.469,33.785 118.409,33.709 114.912 C 33.633 111.416,33.530 110.355,33.217 109.878 L 32.821 109.273 27.469 109.273 C 22.799 109.273,22.073 109.220,21.773 108.859 C 21.191 108.159,21.126 98.105,21.700 97.471 C 22.391 96.707,45.099 96.729,45.865 97.494 M274.272 97.508 C 273.724 98.056,274.146 108.322,274.737 108.835 C 275.546 109.536,321.010 109.511,321.645 108.809 C 322.016 108.400,322.057 107.699,321.997 102.857 L 321.930 97.368 298.234 97.305 C 281.712 97.260,274.458 97.321,274.272 97.508 M202.725 121.467 C 202.271 122.014,202.393 178.020,202.849 178.751 C 203.199 179.311,213.937 179.446,214.486 178.897 C 214.805 178.578,214.951 122.272,214.635 121.449 C 214.400 120.837,203.234 120.854,202.725 121.467 M263.878 132.745 C 263.620 133.055,263.513 134.350,263.451 137.915 C 263.371 142.518,263.349 142.692,262.774 143.313 L 262.179 143.954 256.790 143.971 C 252.738 143.984,251.320 144.068,251.076 144.312 C 250.512 144.875,250.464 154.793,251.023 155.411 C 251.549 155.992,272.183 156.169,273.262 155.602 C 274.176 155.121,274.178 155.098,274.182 144.233 L 274.185 133.704 273.549 133.017 L 272.912 132.331 268.567 132.331 C 264.834 132.331,264.173 132.389,263.878 132.745 M346.017 132.727 C 345.933 132.945,345.864 135.173,345.864 137.677 C 345.863 142.393,345.570 143.783,344.553 143.895 C 344.378 143.914,342.036 143.950,339.348 143.975 C 332.780 144.036,333.241 143.485,333.382 151.106 L 333.459 155.219 334.336 155.535 C 334.988 155.770,338.013 155.856,346.134 155.871 L 357.055 155.890 357.576 155.326 C 358.374 154.462,358.439 134.438,357.649 133.145 L 357.150 132.331 351.660 132.331 C 346.884 132.331,346.149 132.382,346.017 132.727 M309.928 144.211 C 309.287 145.561,309.332 154.887,309.982 155.475 C 310.710 156.134,321.039 156.095,321.640 155.431 C 321.999 155.036,322.055 154.256,322.055 149.711 C 322.055 142.779,322.642 143.358,315.614 143.358 L 310.333 143.358 309.928 144.211 M263.471 168.908 L 262.907 169.379 262.907 180.164 L 262.907 190.949 263.464 191.339 C 264.400 191.994,344.355 191.927,344.949 191.271 C 345.321 190.859,345.363 189.709,345.363 179.999 L 345.363 169.184 344.757 168.787 C 343.911 168.233,335.362 168.345,334.211 168.925 L 333.459 169.304 333.333 173.856 C 333.213 178.245,333.186 178.430,332.600 179.053 L 331.993 179.699 321.141 179.699 L 310.289 179.699 309.906 178.960 C 309.607 178.380,309.524 177.280,309.524 173.878 C 309.524 167.932,310.054 168.421,303.603 168.421 C 296.531 168.421,297.001 168.026,296.996 173.964 C 296.993 178.047,296.954 178.428,296.473 179.039 L 295.954 179.699 286.109 179.699 C 273.111 179.699,274.185 180.227,274.185 173.844 L 274.185 169.460 273.525 168.940 C 272.564 168.184,264.370 168.158,263.471 168.908 M215.366 180.013 C 215.016 180.552,214.957 190.704,215.301 191.118 C 215.669 191.561,225.274 191.652,226.082 191.219 C 226.533 190.978,226.566 190.653,226.566 186.555 L 226.566 182.150 225.541 180.925 L 224.515 179.699 220.042 179.699 C 216.738 179.699,215.515 179.781,215.366 180.013 M166.040 217.145 L 166.792 217.746 166.871 222.219 C 166.979 228.394,168.487 227.679,155.170 227.767 L 144.135 227.839 143.690 227.161 C 143.018 226.136,143.035 218.250,143.711 217.231 L 144.168 216.541 154.728 216.543 L 165.288 216.544 166.040 217.145 M273.458 217.320 L 274.185 218.098 274.185 222.310 L 274.185 226.522 273.414 227.171 L 272.643 227.820 262.136 227.820 C 251.963 227.820,251.613 227.804,251.128 227.318 C 250.348 226.539,250.363 218.197,251.146 217.202 L 251.665 216.541 262.198 216.541 L 272.731 216.541 273.458 217.320 M332.495 217.181 L 333.333 217.820 333.333 222.271 C 333.333 225.718,333.253 226.831,332.978 227.208 C 332.407 227.989,310.807 228.100,310.033 227.326 C 309.317 226.610,309.253 218.455,309.954 217.269 L 310.384 216.541 321.020 216.541 L 331.657 216.541 332.495 217.181 " stroke="none" fill="#050605" fill-rule="evenodd"></path></g></svg>