<svg id="svg" version="1.1" xmlns="http://www.w3.org/2000/svg" xmlns:xlink="http://www.w3.org/1999/xlink" width="400" height="250.52631578947367" viewBox="0, 0, 400,250.52631578947367"><g id="svgg"><path id="path0" d="M97.995 6.261 L 97.995 11.520 91.667 11.587 L 85.338 11.654 85.271 17.979 L 85.204 24.303 77.878 24.370 L 70.551 24.436 70.488 71.742 L 70.425 119.048 59.899 119.048 L 49.373 119.048 49.373 113.784 L 49.373 108.521 44.115 108.521 L 38.856 108.521 38.789 102.193 L 38.722 95.865 25.188 95.865 L 11.654 95.865 11.587 102.193 L 11.520 108.521 7.387 108.521 L 3.254 108.521 3.318 121.115 L 3.383 133.709 7.451 133.778 L 11.519 133.847 11.586 139.041 L 11.654 144.236 17.982 144.303 L 24.311 144.370 24.311 150.631 L 24.311 156.892 35.840 156.892 L 47.368 156.892 47.368 163.158 L 47.368 169.424 58.897 169.424 L 70.426 169.424 70.426 186.336 L 70.426 203.248 65.226 203.316 L 60.025 203.383 60.025 222.180 L 60.025 240.977 80.013 241.042 L 100.000 241.106 100.000 234.839 L 100.000 228.571 106.266 228.571 L 112.531 228.571 112.531 223.308 L 112.531 218.045 116.787 218.045 L 121.042 218.045 121.110 223.246 L 121.178 228.446 127.377 228.513 L 133.575 228.580 133.642 234.779 L 133.709 240.977 151.566 241.042 L 169.424 241.106 169.424 240.116 C 169.424 239.131,169.428 239.126,170.489 239.049 L 171.554 238.972 171.619 228.509 L 171.685 218.045 206.394 218.045 L 241.103 218.045 241.103 223.308 L 241.103 228.571 247.368 228.571 L 253.634 228.571 253.634 234.837 L 253.634 241.103 271.554 241.103 L 289.474 241.103 289.474 229.574 L 289.474 218.045 294.732 218.045 L 299.990 218.045 300.058 223.246 L 300.125 228.446 306.324 228.513 L 312.523 228.580 312.590 234.779 L 312.657 240.977 331.642 241.042 L 350.627 241.106 350.627 229.580 L 350.627 218.054 356.830 217.987 L 363.033 217.920 363.100 211.591 L 363.167 205.263 368.425 205.263 L 373.684 205.263 373.684 199.001 L 373.684 192.739 381.015 192.673 L 388.346 192.607 388.413 186.278 L 388.480 179.950 393.739 179.950 L 398.997 179.950 398.997 149.499 L 398.997 119.048 393.734 119.048 L 388.471 119.048 388.471 95.865 L 388.471 72.682 382.080 72.682 L 375.689 72.682 375.689 71.679 L 375.689 70.677 374.687 70.677 L 373.684 70.677 373.684 65.414 L 373.684 60.150 361.028 60.150 L 348.371 60.150 348.371 66.416 L 348.371 72.682 342.105 72.682 L 335.840 72.682 335.840 77.945 L 335.840 83.208 330.576 83.208 L 325.313 83.208 325.313 53.759 L 325.313 24.311 320.054 24.311 L 314.796 24.311 314.729 17.982 L 314.662 11.654 308.333 11.587 L 302.005 11.520 302.005 6.261 L 302.005 1.003 200.000 1.003 L 97.995 1.003 97.995 6.261 M300.683 13.710 C 301.055 14.277,301.152 15.182,301.274 19.211 C 301.461 25.362,300.781 24.760,307.649 24.858 C 311.830 24.917,313.342 25.020,313.584 25.263 C 313.847 25.526,313.922 32.339,313.976 60.797 L 314.042 96.006 313.423 96.625 L 312.805 97.243 295.521 97.243 C 286.014 97.243,278.058 97.312,277.840 97.395 C 277.164 97.655,277.254 108.081,277.938 108.766 C 278.723 109.550,278.478 109.543,301.685 109.469 L 323.796 109.398 324.367 108.828 C 324.920 108.275,324.939 108.100,324.989 103.063 C 325.054 96.560,324.435 97.160,331.240 96.992 C 337.673 96.834,337.074 97.502,337.085 90.464 C 337.090 86.606,337.179 84.977,337.393 84.762 C 337.609 84.546,339.243 84.461,343.158 84.461 C 350.236 84.461,349.623 85.013,349.628 78.634 C 349.630 75.981,349.739 73.640,349.869 73.434 C 350.130 73.020,366.100 72.725,369.873 73.064 C 372.994 73.344,372.682 70.733,372.682 96.562 C 372.682 116.878,372.718 118.907,373.098 119.550 C 373.646 120.478,374.123 120.551,379.568 120.551 C 382.111 120.551,384.470 120.668,384.890 120.814 C 386.358 121.326,386.325 120.951,386.523 138.972 C 386.623 148.070,386.770 160.652,386.848 166.931 C 387.029 181.373,387.685 180.173,379.574 180.229 C 372.402 180.278,372.683 180.012,372.682 186.771 C 372.682 192.185,373.182 191.729,367.240 191.729 C 361.123 191.729,361.654 191.135,361.654 197.979 C 361.654 202.760,361.602 203.491,361.240 203.791 C 360.684 204.253,243.251 204.441,242.697 203.981 C 242.428 203.758,242.356 202.544,242.356 198.262 C 242.356 191.049,243.032 191.700,235.638 191.787 L 229.950 191.855 229.825 197.828 C 229.708 203.371,229.664 203.826,229.213 204.156 C 228.796 204.460,219.524 204.512,164.426 204.515 C 129.061 204.517,99.872 204.586,99.561 204.669 L 98.997 204.820 98.997 215.552 C 98.997 222.173,98.901 226.538,98.744 226.949 L 98.491 227.615 85.691 227.529 C 73.363 227.447,72.879 227.426,72.536 226.957 C 72.168 226.453,71.977 205.833,72.333 204.908 C 72.469 204.553,73.838 204.511,85.219 204.511 C 92.223 204.511,98.132 204.443,98.350 204.359 C 98.866 204.161,98.956 192.791,98.446 192.281 C 98.231 192.065,96.609 191.980,92.737 191.980 C 88.249 191.980,87.235 191.914,86.773 191.590 L 86.216 191.200 86.216 108.265 C 86.216 26.527,86.223 25.327,86.700 25.071 C 86.993 24.915,89.384 24.812,92.722 24.812 L 98.258 24.812 98.502 24.169 C 98.637 23.816,98.747 21.630,98.747 19.313 C 98.747 14.418,98.866 13.573,99.597 13.278 C 99.888 13.160,145.151 13.057,200.182 13.048 L 300.239 13.033 300.683 13.710 M230.201 61.815 C 229.783 62.233,229.696 72.388,230.107 72.797 C 230.323 73.012,252.340 73.018,253.189 72.803 C 254.102 72.572,254.173 72.066,254.084 66.420 L 254.010 61.788 253.008 61.610 C 250.672 61.196,230.639 61.376,230.201 61.815 M219.091 74.264 L 218.546 74.844 218.546 97.055 C 218.546 110.880,218.639 119.508,218.791 119.908 L 219.035 120.551 223.923 120.551 C 228.801 120.551,228.811 120.550,229.203 119.952 C 229.609 119.332,229.852 74.588,229.453 73.942 C 229.076 73.331,219.694 73.623,219.091 74.264 M254.645 74.169 C 254.495 74.450,254.386 76.495,254.386 79.038 L 254.386 83.422 255.046 83.942 C 255.838 84.564,264.270 84.752,264.862 84.160 C 265.248 83.774,265.285 74.882,264.903 74.169 C 264.661 73.715,264.332 73.684,259.774 73.684 C 255.217 73.684,254.888 73.715,254.645 74.169 M265.915 84.957 C 265.604 85.153,265.524 86.124,265.455 90.534 C 265.348 97.419,264.830 96.840,271.192 96.945 C 277.552 97.050,276.942 97.685,276.942 90.956 L 276.942 85.438 276.073 85.075 C 275.062 84.652,266.554 84.553,265.915 84.957 M37.517 109.837 C 37.628 110.009,37.776 114.955,37.845 120.827 C 37.945 129.366,38.039 131.586,38.314 131.917 C 38.627 132.294,40.085 132.331,54.631 132.331 L 70.603 132.331 71.267 132.945 L 71.930 133.560 71.930 144.318 C 71.930 154.017,71.889 155.110,71.516 155.420 C 71.006 155.844,51.129 156.068,50.062 155.663 L 49.424 155.420 49.336 149.992 L 49.248 144.564 48.496 143.962 L 47.744 143.361 36.788 143.360 C 23.795 143.358,25.313 144.078,25.313 137.917 C 25.313 131.871,25.890 132.407,19.239 132.275 C 12.825 132.148,13.145 132.257,12.944 130.124 C 12.581 126.281,12.759 110.671,13.172 110.081 L 13.562 109.524 25.438 109.524 C 34.663 109.524,37.359 109.594,37.517 109.837 M207.109 121.093 C 206.762 121.631,206.698 178.437,207.044 178.854 C 207.482 179.382,217.103 179.352,217.634 178.821 C 218.266 178.189,218.108 122.011,217.473 121.375 C 216.878 120.779,207.476 120.523,207.109 121.093 M267.293 132.609 C 266.225 133.217,266.165 133.506,266.165 138.096 L 266.165 142.513 265.397 143.249 L 264.628 143.985 259.896 143.985 C 253.992 143.985,254.534 143.450,254.422 149.386 C 254.318 154.846,254.374 155.219,255.344 155.621 C 256.442 156.075,276.463 155.891,277.029 155.420 C 277.715 154.851,277.655 133.900,276.965 133.048 C 276.410 132.362,268.367 131.997,267.293 132.609 M350.174 132.952 C 349.978 133.381,349.875 135.154,349.875 138.093 C 349.875 142.388,349.851 142.607,349.309 143.236 L 348.743 143.894 343.189 143.940 C 340.135 143.965,337.560 144.061,337.467 144.153 C 336.706 144.915,336.547 154.468,337.281 155.373 L 337.719 155.914 349.285 155.839 C 360.172 155.769,360.881 155.737,361.368 155.296 C 362.129 154.606,362.152 134.075,361.392 133.067 C 360.934 132.459,360.908 132.456,355.702 132.376 L 350.472 132.296 350.174 132.952 M314.137 143.886 C 313.358 144.745,313.253 154.606,314.013 155.367 C 314.699 156.053,322.663 156.166,324.227 155.513 L 325.130 155.135 325.012 149.833 L 324.895 144.531 324.213 143.945 C 323.206 143.079,314.912 143.030,314.137 143.886 M266.792 168.601 C 265.403 168.940,265.445 168.587,265.432 180.038 C 265.425 185.848,265.506 190.735,265.610 190.899 C 266.125 191.707,267.267 191.729,308.022 191.729 L 348.844 191.729 349.234 191.172 C 349.915 190.200,349.812 169.611,349.123 168.922 C 348.653 168.452,348.287 168.421,343.233 168.421 C 336.288 168.421,336.842 167.963,336.842 173.709 C 336.842 177.134,336.761 178.166,336.438 178.847 L 336.033 179.699 325.339 179.699 L 314.644 179.699 314.214 178.971 C 313.852 178.358,313.784 177.550,313.784 173.843 C 313.784 167.964,314.327 168.421,307.346 168.421 C 300.430 168.421,301.003 167.917,301.003 174.004 C 301.003 177.745,300.931 178.687,300.612 179.142 L 300.222 179.699 289.448 179.699 L 278.674 179.699 278.059 179.084 C 277.452 178.477,277.444 178.408,277.440 174.009 C 277.435 169.021,277.452 169.084,276.065 168.701 C 275.092 168.432,267.808 168.354,266.792 168.601 M219.377 179.893 C 218.328 180.571,218.089 190.378,219.103 191.089 C 219.712 191.515,229.164 191.688,229.418 191.277 C 229.855 190.570,229.628 181.713,229.149 180.790 L 228.648 179.825 224.161 179.763 C 221.693 179.729,219.540 179.787,219.377 179.893 M157.558 217.181 L 158.396 217.820 158.396 222.114 C 158.396 226.179,158.367 226.440,157.851 226.989 L 157.306 227.569 146.316 227.569 L 135.326 227.569 135.082 226.926 C 134.627 225.731,134.774 218.104,135.267 217.269 L 135.697 216.541 146.208 216.541 L 156.720 216.541 157.558 217.181 M275.851 217.058 C 277.477 217.755,277.435 217.617,277.440 222.330 C 277.443 226.241,277.412 226.517,276.916 226.966 C 276.268 227.553,255.671 227.865,254.988 227.298 C 254.710 227.067,254.637 226.045,254.637 222.388 L 254.637 217.771 255.300 217.156 L 255.963 216.541 265.304 216.541 C 274.183 216.541,274.705 216.567,275.851 217.058 M336.324 217.269 C 337.016 218.241,337.119 226.060,336.452 227.012 L 336.062 227.569 325.183 227.569 C 314.683 227.569,314.294 227.552,314.044 227.084 C 313.503 226.073,313.716 217.949,314.304 217.202 L 314.823 216.541 325.314 216.541 L 335.805 216.541 336.324 217.269 " stroke="none" fill="#060606" fill-rule="evenodd"></path></g></svg>