<svg id="svg" version="1.1" xmlns="http://www.w3.org/2000/svg" xmlns:xlink="http://www.w3.org/1999/xlink" width="400" height="250.52631578947367" viewBox="0, 0, 400,250.52631578947367"><g id="svgg"><path id="path0" d="M97.995 7.393 L 97.995 13.784 91.604 13.784 L 85.213 13.784 85.213 19.044 L 85.213 24.303 77.882 24.370 L 70.551 24.436 70.488 72.744 L 70.425 121.053 65.314 121.053 C 59.232 121.053,59.900 120.354,59.900 126.712 L 59.900 131.579 42.105 131.579 L 24.311 131.579 24.311 137.970 L 24.311 144.361 13.782 144.361 L 3.254 144.361 3.319 157.957 L 3.383 171.554 7.451 171.623 L 11.519 171.692 11.586 176.886 L 11.654 182.080 36.842 182.080 L 62.030 182.080 62.098 176.880 L 62.166 171.679 68.426 171.679 L 74.687 171.679 74.687 175.930 L 74.687 180.180 72.619 180.253 L 70.551 180.326 70.483 211.278 C 70.445 228.302,70.475 242.484,70.550 242.794 L 70.686 243.358 91.609 243.358 L 112.531 243.358 112.531 236.967 L 112.531 230.576 117.794 230.576 L 123.058 230.576 123.058 224.311 L 123.058 218.045 128.316 218.045 L 133.575 218.045 133.642 224.248 L 133.709 230.451 140.033 230.518 L 146.357 230.585 146.424 236.909 L 146.491 243.233 164.286 243.233 L 182.080 243.233 182.145 230.639 L 182.210 218.045 217.922 218.045 L 253.634 218.045 253.634 224.311 L 253.634 230.576 258.893 230.576 L 264.152 230.576 264.219 236.905 L 264.286 243.233 283.145 243.297 L 302.005 243.362 302.005 230.703 L 302.005 218.045 307.264 218.045 L 312.523 218.045 312.590 224.248 L 312.657 230.451 317.857 230.519 L 323.058 230.587 323.061 236.659 C 323.064 239.999,323.155 242.873,323.265 243.047 C 323.423 243.296,327.588 243.348,343.249 243.297 L 363.033 243.233 363.097 225.381 L 363.161 207.529 368.360 207.461 L 373.559 207.393 373.626 201.065 L 373.693 194.737 381.082 194.737 L 388.471 194.737 388.471 188.476 L 388.471 182.216 393.672 182.148 L 398.872 182.080 398.872 151.629 L 398.872 121.178 393.672 121.110 L 388.471 121.042 388.471 96.862 L 388.471 72.682 381.078 72.682 L 373.684 72.682 373.684 67.419 L 373.684 62.155 361.028 62.155 L 348.371 62.155 348.371 67.419 L 348.371 72.682 342.105 72.682 L 335.840 72.682 335.840 78.947 L 335.840 85.213 330.576 85.213 L 325.313 85.213 325.313 54.762 L 325.313 24.311 320.050 24.311 L 314.787 24.311 314.787 19.048 L 314.787 13.784 308.396 13.784 L 302.005 13.784 302.005 7.393 L 302.005 1.003 200.000 1.003 L 97.995 1.003 97.995 7.393 M300.768 14.545 C 301.221 14.787,301.253 15.114,301.253 19.502 C 301.253 25.810,300.650 25.234,307.382 25.351 C 313.522 25.457,313.374 25.407,313.780 27.545 C 314.064 29.042,314.150 94.061,313.872 96.724 C 313.619 99.142,315.093 98.948,295.614 99.122 C 286.241 99.206,278.318 99.327,278.008 99.391 C 277.104 99.579,277.129 108.407,278.036 109.386 L 278.629 110.025 301.008 110.025 L 323.386 110.025 324.215 109.393 L 325.043 108.761 325.030 104.478 C 325.023 102.123,325.112 100.107,325.228 99.998 C 326.347 98.949,327.395 98.747,331.724 98.747 C 337.398 98.747,336.944 99.289,337.046 92.393 C 337.143 85.820,336.461 86.466,343.303 86.466 C 350.228 86.466,349.605 87.111,349.616 79.937 C 349.622 76.081,349.710 74.450,349.925 74.236 C 350.368 73.792,371.656 73.805,372.264 74.249 C 372.664 74.541,372.693 76.073,372.690 96.534 C 372.687 117.755,372.778 120.747,373.449 121.420 C 373.605 121.576,375.982 121.729,379.398 121.805 C 384.581 121.919,385.661 122.048,386.272 122.628 C 386.304 122.657,386.414 130.576,386.517 140.226 C 386.620 149.875,386.769 162.794,386.848 168.935 C 386.983 179.472,386.966 180.123,386.541 180.491 C 385.603 181.303,384.418 181.454,378.949 181.454 C 372.048 181.454,372.718 180.784,372.692 187.702 C 372.668 194.361,373.202 193.734,367.547 193.734 C 363.351 193.734,362.922 193.776,362.336 194.237 L 361.698 194.739 361.613 199.980 C 361.520 205.778,361.594 205.496,360.098 205.785 C 357.758 206.238,243.205 206.058,242.825 205.601 C 242.564 205.287,242.463 203.934,242.405 199.969 L 242.328 194.751 241.682 194.243 C 240.883 193.615,230.628 193.445,230.124 194.051 C 229.965 194.243,229.830 196.500,229.780 199.796 C 229.700 205.142,229.690 205.234,229.092 205.870 L 228.485 206.515 163.804 206.578 L 99.123 206.642 99.054 211.376 C 98.962 217.789,98.528 217.293,104.229 217.293 C 111.012 217.293,110.777 217.089,110.777 222.994 L 110.777 227.225 110.009 227.961 L 109.241 228.697 98.400 228.767 C 87.608 228.837,87.558 228.835,87.076 228.302 C 86.616 227.795,86.588 227.241,86.521 217.444 L 86.450 207.120 87.033 206.572 C 87.590 206.049,87.854 206.022,93.119 205.957 L 98.622 205.890 98.689 200.336 C 98.775 193.282,99.462 193.985,92.481 193.985 C 87.835 193.985,86.943 193.925,86.609 193.591 C 86.253 193.235,86.216 185.267,86.216 109.645 L 86.216 26.094 86.773 25.703 C 87.235 25.379,88.252 25.313,92.779 25.313 C 99.369 25.313,98.747 25.887,98.747 19.816 C 98.747 15.622,98.784 15.251,99.248 14.787 C 99.827 14.208,299.691 13.968,300.768 14.545 M230.115 63.796 C 229.744 64.611,229.718 72.766,230.084 73.450 C 230.404 74.049,253.243 74.226,253.835 73.634 C 254.182 73.287,254.265 64.502,253.926 63.968 C 253.482 63.268,251.749 63.158,241.207 63.158 L 230.406 63.158 230.115 63.796 M219.298 74.507 L 218.672 74.827 218.608 98.056 C 218.545 120.986,218.550 121.288,219.040 121.550 C 219.353 121.717,221.272 121.790,224.235 121.747 L 228.933 121.679 229.251 121.053 C 229.501 120.558,229.555 115.576,229.508 97.368 L 229.449 74.311 224.687 74.249 C 221.214 74.204,219.755 74.274,219.298 74.507 M254.687 74.486 C 254.038 75.135,254.286 85.283,254.966 85.921 C 255.654 86.568,264.248 86.780,264.862 86.165 C 265.443 85.585,265.273 74.763,264.678 74.445 C 263.965 74.063,255.073 74.100,254.687 74.486 M266.119 86.886 C 265.135 87.146,265.121 97.450,266.103 98.246 C 266.682 98.714,273.853 99.110,275.815 98.781 L 276.817 98.613 276.884 92.969 L 276.951 87.324 275.816 87.021 C 274.740 86.733,267.101 86.627,266.119 86.886 M207.068 122.607 C 206.631 123.043,206.631 180.215,207.068 180.652 C 207.440 181.024,216.435 181.076,217.395 180.711 L 218.031 180.469 218.010 151.826 C 217.998 134.814,217.896 123.005,217.758 122.744 C 217.466 122.192,207.609 122.065,207.068 122.607 M267.258 133.256 C 266.246 133.761,266.172 134.223,266.168 139.999 C 266.165 145.925,266.673 145.449,260.163 145.614 C 256.486 145.707,255.107 145.828,254.800 146.083 C 254.053 146.704,254.189 157.002,254.951 157.502 C 255.819 158.071,275.166 158.120,276.514 157.557 L 277.444 157.168 277.440 145.689 C 277.438 139.376,277.336 134.053,277.215 133.861 C 276.554 132.817,269.053 132.362,267.258 133.256 M350.289 133.435 C 349.937 133.972,349.875 134.854,349.875 139.284 C 349.875 146.271,350.534 145.614,343.525 145.614 C 336.151 145.614,336.842 144.994,336.842 151.616 C 336.842 156.215,336.894 156.901,337.281 157.376 L 337.719 157.916 349.302 157.843 C 360.029 157.775,360.918 157.736,361.332 157.322 C 361.812 156.842,362.130 137.313,361.699 134.787 C 361.415 133.122,360.918 132.972,355.364 132.880 L 350.704 132.802 350.289 133.435 M71.373 145.754 C 72.128 146.282,72.257 156.810,71.516 157.425 C 71.186 157.700,69.041 157.795,60.927 157.895 C 52.529 157.998,50.621 158.086,50.000 158.399 L 49.248 158.778 49.123 163.329 C 49.002 167.718,48.976 167.904,48.390 168.527 L 47.782 169.173 30.831 169.173 C 17.375 169.173,13.789 169.106,13.438 168.849 C 12.750 168.346,12.745 159.038,13.432 158.535 C 14.070 158.069,16.539 157.890,20.761 158.004 C 25.673 158.137,25.313 158.640,25.313 151.647 C 25.313 146.985,25.373 146.091,25.707 145.757 C 26.304 145.160,70.520 145.156,71.373 145.754 M314.005 145.895 C 313.352 146.548,313.359 156.704,314.014 157.493 C 314.298 157.835,315.041 157.895,319.051 157.895 C 325.345 157.895,324.830 158.397,325.001 152.089 C 325.151 146.572,325.087 146.070,324.180 145.657 C 322.899 145.073,314.633 145.267,314.005 145.895 M267.187 169.618 C 265.520 170.533,265.533 170.440,265.448 182.098 L 265.371 192.607 266.039 193.233 L 266.707 193.860 307.642 193.928 L 348.576 193.997 349.110 193.318 C 349.866 192.356,349.816 171.383,349.054 169.987 L 348.609 169.173 343.233 169.173 L 337.857 169.173 337.416 169.987 C 337.053 170.657,336.952 171.666,336.846 175.647 C 336.728 180.071,336.674 180.524,336.230 180.848 C 335.389 181.462,314.761 181.366,314.199 180.745 C 313.846 180.355,313.784 179.617,313.779 175.795 C 313.774 171.901,313.709 171.162,313.290 170.238 L 312.806 169.173 307.393 169.173 L 301.979 169.173 301.558 170.113 C 301.222 170.861,301.120 172.021,301.056 175.815 C 300.987 179.865,300.913 180.623,300.565 180.890 C 299.747 181.514,278.917 181.323,278.104 180.684 L 277.444 180.164 277.444 175.683 C 277.444 169.209,277.550 169.334,271.930 169.224 C 268.511 169.157,267.942 169.204,267.187 169.618 M10.213 169.609 C 9.283 169.658,7.760 169.658,6.830 169.609 C 5.899 169.561,6.660 169.522,8.521 169.522 C 10.382 169.522,11.143 169.561,10.213 169.609 M218.847 181.504 C 218.238 182.113,218.441 192.559,219.073 193.132 C 219.624 193.631,226.756 193.990,228.738 193.618 L 229.547 193.466 229.623 187.898 C 229.723 180.580,230.252 181.203,223.941 181.203 C 220.547 181.203,219.060 181.291,218.847 181.504 M169.725 217.744 C 170.159 218.179,170.346 225.761,169.954 227.068 C 169.470 228.686,169.453 228.688,158.324 228.770 L 148.352 228.844 147.836 227.676 C 147.080 225.968,147.203 218.218,147.995 217.636 C 148.690 217.125,169.208 217.227,169.725 217.744 M288.013 217.708 C 288.733 218.360,288.700 226.815,287.973 228.008 L 287.476 228.822 278.109 228.822 C 264.601 228.822,265.662 229.330,265.668 222.861 C 265.672 218.463,265.851 217.769,267.049 217.512 C 268.947 217.106,287.539 217.279,288.013 217.708 M348.915 217.708 C 349.530 218.264,349.607 226.526,349.010 227.953 L 348.647 228.822 338.200 228.822 C 324.196 228.822,324.995 229.138,325.051 223.630 C 325.101 218.610,325.231 217.990,326.316 217.621 C 327.848 217.098,348.329 217.177,348.915 217.708 " stroke="none" fill="#060505" fill-rule="evenodd"></path></g></svg>