<svg id="svg" version="1.1" xmlns="http://www.w3.org/2000/svg" xmlns:xlink="http://www.w3.org/1999/xlink" width="400" height="250.52631578947367" viewBox="0, 0, 400,250.52631578947367"><g id="svgg"><path id="path0" d="M97.995 7.393 L 97.995 13.784 91.604 13.784 L 85.213 13.784 85.213 19.044 L 85.213 24.303 77.882 24.370 L 70.551 24.436 70.488 72.744 L 70.425 121.053 58.897 121.053 L 47.368 121.053 47.368 126.316 L 47.368 131.579 35.840 131.579 L 24.311 131.579 24.311 137.970 L 24.311 144.361 17.920 144.361 L 11.529 144.361 11.529 150.621 L 11.529 156.882 6.328 156.950 L 1.128 157.018 1.128 169.549 L 1.128 182.080 6.328 182.148 L 11.529 182.216 11.529 188.476 L 11.529 194.737 25.188 194.737 L 38.847 194.737 38.847 188.475 L 38.847 182.214 45.175 182.147 L 51.504 182.080 51.572 176.880 L 51.639 171.679 61.033 171.679 L 70.426 171.679 70.426 188.471 L 70.426 205.263 65.315 205.263 C 60.886 205.263,60.184 205.316,60.052 205.660 C 59.823 206.257,59.877 242.683,60.107 243.047 C 60.266 243.296,64.430 243.348,80.091 243.297 L 99.875 243.233 99.942 236.905 L 100.009 230.576 105.267 230.576 L 110.526 230.576 110.526 229.574 L 110.526 228.571 111.529 228.571 L 112.531 228.571 112.531 223.308 L 112.531 218.045 116.792 218.045 L 121.053 218.045 121.053 224.311 L 121.053 230.576 127.318 230.576 L 133.584 230.576 133.588 236.654 C 133.590 239.997,133.682 242.874,133.792 243.047 C 133.950 243.296,137.914 243.348,152.773 243.297 L 171.554 243.233 171.619 230.639 L 171.684 218.045 206.393 218.045 L 241.103 218.045 241.103 224.311 L 241.103 230.576 247.364 230.576 L 253.625 230.576 253.692 236.905 L 253.759 243.233 271.554 243.233 L 289.348 243.233 289.413 230.639 L 289.478 218.045 294.739 218.045 L 300.000 218.045 300.000 224.311 L 300.000 230.576 306.266 230.576 L 312.531 230.576 312.535 236.654 C 312.537 239.997,312.629 242.874,312.739 243.047 C 312.897 243.296,316.861 243.348,331.720 243.297 L 350.501 243.233 350.566 230.643 L 350.631 218.054 356.832 217.987 L 363.033 217.920 363.100 212.724 L 363.168 207.529 368.363 207.461 L 373.559 207.393 373.626 201.065 L 373.693 194.737 381.082 194.737 L 388.471 194.737 388.471 188.476 L 388.471 182.216 393.672 182.148 L 398.872 182.080 398.872 151.629 L 398.872 121.178 393.672 121.110 L 388.471 121.042 388.471 96.862 L 388.471 72.682 381.078 72.682 L 373.684 72.682 373.684 67.419 L 373.684 62.155 361.028 62.155 L 348.371 62.155 348.371 67.419 L 348.371 72.682 342.105 72.682 L 335.840 72.682 335.840 78.947 L 335.840 85.213 330.576 85.213 L 325.313 85.213 325.313 54.762 L 325.313 24.311 320.050 24.311 L 314.787 24.311 314.787 19.048 L 314.787 13.784 308.396 13.784 L 302.005 13.784 302.005 7.393 L 302.005 1.003 200.000 1.003 L 97.995 1.003 97.995 7.393 M300.768 14.545 C 301.221 14.787,301.253 15.114,301.253 19.502 C 301.253 25.810,300.650 25.234,307.382 25.351 C 313.522 25.457,313.374 25.407,313.780 27.545 C 314.064 29.042,314.150 94.061,313.872 96.724 C 313.617 99.169,315.099 98.973,295.598 99.137 C 286.233 99.216,278.318 99.331,278.008 99.394 C 277.104 99.577,277.129 108.407,278.036 109.386 L 278.629 110.025 301.159 110.025 L 323.689 110.025 324.396 109.370 C 325.078 108.737,325.100 108.640,325.059 106.425 C 325.035 105.166,325.026 103.216,325.039 102.092 L 325.063 100.050 326.003 99.486 C 326.886 98.956,327.208 98.923,331.366 98.940 C 337.362 98.965,336.942 99.448,337.046 92.399 C 337.143 85.819,336.460 86.466,343.303 86.466 C 350.228 86.466,349.605 87.111,349.616 79.937 C 349.622 76.081,349.710 74.450,349.925 74.236 C 350.369 73.791,371.656 73.805,372.265 74.250 C 372.668 74.544,372.697 76.060,372.707 96.744 C 372.714 110.876,372.811 119.360,372.975 120.128 C 373.320 121.751,373.524 121.805,379.335 121.805 C 383.882 121.805,385.175 121.961,386.272 122.646 C 386.304 122.666,386.414 130.576,386.517 140.226 C 386.620 149.875,386.769 162.794,386.848 168.935 C 386.983 179.472,386.966 180.123,386.541 180.491 C 385.607 181.300,384.415 181.454,379.091 181.454 C 372.026 181.454,372.685 180.817,372.693 187.633 C 372.700 194.369,373.235 193.734,367.547 193.734 C 363.351 193.734,362.922 193.776,362.336 194.237 L 361.698 194.739 361.613 199.980 C 361.520 205.778,361.594 205.496,360.098 205.785 C 357.758 206.238,243.205 206.058,242.825 205.601 C 242.564 205.287,242.463 203.934,242.405 199.969 L 242.328 194.751 241.682 194.243 C 240.883 193.615,230.628 193.445,230.124 194.051 C 229.965 194.243,229.830 196.500,229.780 199.796 C 229.700 205.142,229.690 205.234,229.092 205.870 L 228.485 206.515 163.804 206.578 L 99.123 206.642 98.997 216.917 C 98.894 225.412,98.806 227.323,98.493 227.945 L 98.114 228.697 87.488 228.762 C 77.282 228.825,76.820 228.808,75.820 228.324 C 75.248 228.046,74.304 227.820,73.724 227.820 C 72.822 227.820,72.634 227.726,72.425 227.177 C 71.954 225.939,72.111 206.886,72.595 206.484 C 72.929 206.206,75.469 206.116,85.815 206.015 L 98.622 205.890 98.689 200.336 C 98.775 193.282,99.462 193.985,92.481 193.985 C 87.835 193.985,86.943 193.925,86.609 193.591 C 86.253 193.235,86.216 185.267,86.216 109.645 L 86.216 26.094 86.773 25.703 C 87.235 25.379,88.252 25.313,92.779 25.313 C 99.369 25.313,98.747 25.887,98.747 19.816 C 98.747 15.622,98.784 15.251,99.248 14.787 C 99.827 14.208,299.691 13.968,300.768 14.545 M230.115 63.796 C 229.744 64.611,229.718 72.766,230.084 73.450 C 230.404 74.049,253.243 74.226,253.835 73.634 C 254.182 73.287,254.265 64.502,253.926 63.968 C 253.482 63.268,251.749 63.158,241.207 63.158 L 230.406 63.158 230.115 63.796 M219.298 74.507 L 218.672 74.827 218.607 98.002 C 218.547 119.568,218.572 121.200,218.968 121.491 C 219.639 121.984,228.280 121.914,228.947 121.410 C 229.442 121.036,229.449 120.738,229.449 97.671 L 229.449 74.311 224.687 74.249 C 221.214 74.204,219.755 74.274,219.298 74.507 M254.687 74.486 C 254.472 74.701,254.386 76.303,254.386 80.107 L 254.386 85.427 255.046 85.947 C 255.838 86.569,264.270 86.757,264.862 86.165 C 265.443 85.585,265.273 74.763,264.678 74.445 C 263.965 74.063,255.073 74.100,254.687 74.486 M265.915 86.963 C 265.225 87.400,265.382 97.662,266.087 98.233 C 266.685 98.717,274.227 99.138,275.940 98.783 L 276.817 98.601 276.884 92.941 L 276.952 87.280 275.833 86.998 C 274.479 86.657,266.442 86.628,265.915 86.963 M207.068 122.607 C 206.631 123.043,206.631 180.215,207.068 180.652 C 207.442 181.025,216.437 181.075,217.401 180.709 L 218.042 180.465 218.031 151.847 C 218.024 133.558,217.931 123.062,217.773 122.767 C 217.467 122.195,207.627 122.047,207.068 122.607 M71.202 133.350 L 71.930 133.869 71.930 145.492 L 71.930 157.114 71.373 157.505 C 70.883 157.848,68.889 157.895,54.789 157.895 C 40.227 157.895,38.719 157.933,38.303 158.310 C 37.872 158.699,37.845 159.381,37.845 169.570 C 37.845 179.177,37.799 180.461,37.444 180.816 C 36.765 181.495,13.642 181.281,13.138 180.591 C 12.726 180.028,12.606 159.312,13.011 158.673 C 13.352 158.135,15.269 157.926,20.030 157.910 C 25.818 157.890,25.313 158.492,25.313 151.608 C 25.313 146.981,25.373 146.091,25.707 145.757 C 26.053 145.411,27.414 145.363,36.868 145.363 C 45.703 145.363,47.791 145.298,48.504 145.000 L 49.373 144.637 49.373 139.251 C 49.373 133.412,49.306 133.686,50.877 133.172 C 52.679 132.582,70.341 132.738,71.202 133.350 M267.293 133.140 C 266.174 133.540,266.173 133.544,266.169 139.247 C 266.164 146.048,266.731 145.448,260.163 145.614 C 253.781 145.776,254.386 145.130,254.386 151.779 L 254.386 157.131 255.009 157.539 C 255.871 158.104,275.247 158.086,276.604 157.519 L 277.444 157.168 277.440 145.689 C 277.438 139.376,277.336 134.053,277.215 133.861 C 276.613 132.911,269.403 132.387,267.293 133.140 M350.279 133.450 C 349.940 133.969,349.875 134.904,349.875 139.284 C 349.875 146.271,350.534 145.614,343.525 145.614 C 336.151 145.614,336.842 144.994,336.842 151.616 C 336.842 158.701,335.272 157.870,348.747 157.920 C 361.786 157.969,361.479 158.018,361.739 155.856 C 361.957 154.042,361.922 135.974,361.698 134.712 C 361.407 133.068,360.682 132.859,355.229 132.844 L 350.684 132.832 350.279 133.450 M314.005 145.895 C 313.352 146.548,313.359 156.704,314.014 157.493 C 314.548 158.137,323.516 158.087,324.321 157.436 C 324.886 156.978,325.354 146.963,324.847 146.185 C 324.172 145.151,314.995 144.905,314.005 145.895 M267.232 169.574 C 265.430 170.488,265.452 170.328,265.439 182.104 C 265.425 193.870,265.354 193.395,267.183 193.748 C 267.795 193.866,286.361 193.968,308.440 193.974 L 348.585 193.985 349.114 193.312 C 349.867 192.356,349.812 171.376,349.054 169.987 L 348.609 169.173 343.233 169.173 L 337.857 169.173 337.416 169.987 C 337.053 170.657,336.952 171.666,336.846 175.647 C 336.728 180.071,336.674 180.524,336.230 180.848 C 335.411 181.446,314.763 181.368,314.218 180.764 C 313.893 180.404,313.808 179.457,313.741 175.439 C 313.669 171.167,313.600 170.464,313.192 169.862 L 312.724 169.173 307.352 169.173 L 301.979 169.173 301.558 170.113 C 301.223 170.859,301.118 172.032,301.049 175.813 C 300.998 178.610,300.854 180.704,300.701 180.889 C 300.179 181.517,278.919 181.324,278.104 180.684 L 277.444 180.164 277.444 175.683 C 277.444 169.207,277.550 169.331,271.930 169.231 C 268.723 169.173,267.903 169.233,267.232 169.574 M218.847 181.504 C 218.238 182.113,218.441 192.559,219.073 193.132 C 219.626 193.633,226.758 193.989,228.752 193.615 L 229.574 193.461 229.574 187.747 C 229.574 182.529,229.534 181.997,229.116 181.618 C 228.532 181.090,219.363 180.988,218.847 181.504 M157.497 217.580 C 158.322 217.955,158.458 218.911,158.353 223.609 L 158.271 227.287 157.532 228.057 L 156.793 228.827 146.257 228.762 L 135.721 228.697 135.342 227.945 C 134.816 226.902,134.786 218.334,135.306 217.707 C 135.739 217.186,156.372 217.067,157.497 217.580 M276.190 217.648 C 277.275 218.039,277.502 219.235,277.390 223.972 C 277.272 228.971,277.643 228.822,265.360 228.822 C 253.503 228.822,254.551 229.459,254.682 222.326 C 254.755 218.388,254.805 217.972,255.248 217.648 C 255.918 217.159,274.835 217.159,276.190 217.648 M336.373 217.707 C 336.893 218.334,336.864 226.902,336.338 227.945 L 335.958 228.697 325.380 228.762 L 314.802 228.827 314.356 228.147 C 313.765 227.245,313.679 218.400,314.254 217.708 C 314.779 217.075,335.847 217.074,336.373 217.707 " stroke="none" fill="#060505" fill-rule="evenodd"></path></g></svg>