<svg id="svg" version="1.1" xmlns="http://www.w3.org/2000/svg" xmlns:xlink="http://www.w3.org/1999/xlink" width="400" height="250.52631578947367" viewBox="0, 0, 400,250.52631578947367"><g id="svgg"><path id="path0" d="M108.521 7.393 L 108.521 13.784 102.130 13.784 L 95.739 13.784 95.739 19.044 L 95.739 24.303 88.409 24.370 L 81.078 24.436 81.014 66.479 L 80.951 108.521 70.425 108.521 L 59.900 108.521 59.900 103.258 L 59.900 97.995 35.714 97.995 L 11.529 97.995 11.529 103.258 L 11.529 108.521 5.764 108.521 L 0.000 108.521 0.000 121.178 L 0.000 133.835 11.028 133.835 L 22.055 133.835 22.055 140.100 L 22.055 146.366 39.975 146.366 L 57.895 146.366 57.895 152.632 L 57.895 158.897 69.424 158.897 L 80.952 158.897 80.952 169.544 L 80.952 180.190 75.752 180.258 L 70.551 180.326 70.484 186.529 L 70.417 192.732 64.156 192.732 L 57.895 192.732 57.895 198.992 L 57.895 205.253 52.694 205.321 L 47.494 205.388 47.494 224.311 L 47.494 243.233 65.288 243.233 L 83.083 243.233 83.150 236.905 L 83.217 230.576 90.606 230.576 L 97.995 230.576 97.995 224.311 L 97.995 218.045 103.258 218.045 L 108.521 218.045 108.521 224.311 L 108.521 230.576 114.783 230.576 L 121.044 230.576 121.111 236.905 L 121.178 243.233 140.038 243.297 L 158.897 243.362 158.897 230.703 L 158.897 218.045 192.601 218.045 L 226.306 218.045 226.373 223.246 L 226.441 228.446 227.367 228.523 C 228.236 228.595,228.297 228.656,228.369 229.526 L 228.446 230.451 233.647 230.519 L 238.847 230.587 238.851 236.659 C 238.853 239.999,238.945 242.874,239.055 243.047 C 239.213 243.296,243.177 243.348,258.036 243.297 L 276.817 243.233 276.882 230.639 L 276.947 218.045 282.208 218.045 L 287.469 218.045 287.469 224.311 L 287.469 230.576 292.728 230.576 L 297.986 230.576 298.053 236.905 L 298.120 243.233 316.917 243.233 L 335.714 243.233 335.779 230.641 L 335.844 218.050 348.436 217.985 L 361.028 217.920 361.095 212.724 L 361.163 207.528 367.361 207.461 L 373.559 207.393 373.626 201.065 L 373.693 194.737 378.952 194.737 L 384.211 194.737 384.211 188.475 L 384.211 182.213 391.541 182.147 L 398.872 182.080 398.872 151.629 L 398.872 121.178 391.541 121.112 L 384.211 121.045 384.211 96.863 L 384.211 72.682 378.947 72.682 L 373.684 72.682 373.684 67.419 L 373.684 62.155 360.025 62.155 L 346.366 62.155 346.366 67.419 L 346.366 72.682 341.103 72.682 L 335.840 72.682 335.840 48.496 L 335.840 24.311 330.576 24.311 L 325.313 24.311 325.313 19.048 L 325.313 13.784 318.922 13.784 L 312.531 13.784 312.531 7.393 L 312.531 1.003 210.526 1.003 L 108.521 1.003 108.521 7.393 M311.295 14.545 C 311.747 14.787,311.779 15.113,311.779 19.421 C 311.779 25.487,311.695 25.314,314.639 25.312 C 320.396 25.310,323.360 25.509,323.778 25.926 C 324.149 26.297,324.197 29.527,324.311 62.424 C 324.421 94.140,324.482 98.543,324.812 98.752 C 325.481 99.175,333.511 99.056,334.452 98.609 C 335.454 98.134,335.589 97.251,335.589 91.185 L 335.589 87.206 336.278 86.914 C 336.688 86.741,338.901 86.582,341.729 86.523 C 348.145 86.389,347.619 86.977,347.619 79.937 C 347.619 75.544,347.688 74.441,347.975 74.202 C 348.526 73.745,371.200 73.934,371.761 74.400 C 372.133 74.709,372.176 76.814,372.238 97.594 C 372.301 118.786,372.337 120.497,372.740 121.111 L 373.175 121.774 377.950 121.852 C 381.863 121.916,382.769 121.998,382.963 122.306 C 383.103 122.528,383.202 127.313,383.204 133.981 C 383.206 140.196,383.273 153.222,383.353 162.929 C 383.452 174.978,383.415 180.696,383.237 180.952 C 383.025 181.258,382.038 181.352,377.992 181.454 C 371.571 181.615,372.180 180.971,372.180 187.594 C 372.180 194.237,372.846 193.574,366.014 193.734 C 362.114 193.826,360.587 193.947,360.350 194.185 C 360.113 194.422,359.991 195.949,359.900 199.848 C 359.811 203.614,359.681 205.299,359.459 205.567 C 359.067 206.039,241.339 206.101,240.868 205.630 C 240.371 205.132,240.100 202.659,240.100 198.602 C 240.100 193.363,240.530 193.734,234.461 193.734 C 228.346 193.734,228.822 193.281,228.822 199.106 C 228.822 204.491,228.622 205.291,227.107 205.969 C 226.233 206.361,222.021 206.389,168.326 206.365 L 110.487 206.338 109.943 205.794 C 109.424 205.275,109.395 205.000,109.318 199.931 C 109.217 193.335,109.903 193.985,103.042 193.985 C 98.384 193.985,97.597 193.929,97.200 193.570 C 96.611 193.037,96.467 26.763,97.055 26.012 C 97.321 25.673,98.225 25.596,102.978 25.507 C 109.918 25.377,109.273 25.954,109.273 19.877 C 109.273 15.622,109.310 15.252,109.774 14.787 C 110.353 14.208,310.217 13.968,311.295 14.545 M229.844 63.556 L 229.073 64.205 229.073 68.769 C 229.073 71.985,229.162 73.422,229.373 73.634 C 229.806 74.067,251.647 74.067,252.080 73.634 C 252.574 73.140,252.495 64.184,251.991 63.464 L 251.601 62.907 241.108 62.907 L 230.615 62.907 229.844 63.556 M217.512 74.600 C 217.139 75.049,216.831 116.199,217.172 119.987 L 217.336 121.805 222.093 121.805 C 227.367 121.805,227.586 121.750,228.165 120.303 C 228.778 118.771,228.788 74.573,228.175 74.338 C 227.160 73.948,217.863 74.177,217.512 74.600 M252.945 74.468 C 252.373 75.049,252.511 85.248,253.100 85.927 C 253.728 86.651,264.236 86.783,264.510 86.070 C 264.825 85.247,264.678 74.727,264.348 74.514 C 263.784 74.148,253.301 74.107,252.945 74.468 M265.213 87.018 C 264.888 87.342,264.779 95.525,265.075 97.317 C 265.323 98.818,265.923 98.997,270.681 98.997 C 276.196 98.997,275.689 99.618,275.689 92.857 C 275.689 87.556,275.662 87.221,275.204 86.976 C 274.492 86.595,265.599 86.631,265.213 87.018 M293.985 99.245 C 284.405 99.316,276.425 99.465,276.253 99.576 C 276.022 99.726,275.940 100.945,275.940 104.232 L 275.940 108.685 276.586 109.292 C 277.497 110.149,278.112 110.170,302.215 110.159 L 323.101 110.150 323.706 109.447 C 324.307 108.749,324.668 100.722,324.159 99.394 C 324.025 99.045,323.255 99.005,317.705 99.057 C 314.239 99.089,303.565 99.174,293.985 99.245 M46.183 110.185 C 48.166 110.378,48.195 110.457,48.359 116.190 C 48.457 119.607,48.591 121.089,48.826 121.373 C 49.116 121.722,50.452 121.780,59.806 121.850 L 70.455 121.930 70.936 122.556 C 71.675 123.519,71.682 132.178,70.944 132.573 C 70.128 133.009,24.534 132.925,23.934 132.486 C 23.502 132.171,23.457 131.731,23.419 127.453 C 23.366 121.371,23.826 121.854,17.916 121.671 C 11.953 121.487,12.192 121.797,12.331 114.411 L 12.406 110.401 15.288 110.276 C 19.494 110.093,44.486 110.019,46.183 110.185 M204.863 122.583 C 204.313 123.191,204.270 179.961,204.820 180.639 C 205.302 181.233,216.459 181.073,216.783 180.468 C 217.182 179.723,217.141 122.755,216.742 122.356 C 216.132 121.746,205.436 121.950,204.863 122.583 M265.915 133.274 C 265.613 133.613,265.514 134.804,265.414 139.300 C 265.257 146.297,265.950 145.614,259.002 145.614 C 251.949 145.614,252.581 144.997,252.680 151.793 C 252.750 156.588,252.802 157.141,253.234 157.618 C 253.978 158.439,274.488 158.446,275.530 157.626 L 276.190 157.106 276.190 145.630 C 276.190 134.398,276.179 134.139,275.671 133.492 L 275.152 132.832 270.721 132.842 C 266.889 132.850,266.240 132.908,265.915 133.274 M348.129 133.317 C 347.973 133.608,347.870 135.957,347.870 139.197 C 347.870 146.169,348.500 145.527,341.524 145.659 C 334.526 145.791,335.196 145.135,335.285 151.774 L 335.357 157.140 336.162 157.580 C 336.889 157.977,338.039 158.027,348.030 158.095 L 359.093 158.169 359.633 157.482 C 360.426 156.474,360.347 134.242,359.548 133.359 C 358.836 132.573,348.548 132.535,348.129 133.317 M81.739 133.561 C 82.322 134.033,82.332 134.119,82.411 139.310 L 82.492 144.580 81.735 144.972 C 80.378 145.673,72.666 145.536,72.036 144.799 C 71.290 143.927,71.532 133.614,72.306 133.313 C 73.489 132.852,81.110 133.053,81.739 133.561 M311.919 145.920 C 311.170 146.990,311.357 156.894,312.140 157.630 C 312.962 158.402,322.445 158.354,323.640 157.571 L 324.311 157.131 324.311 151.749 C 324.311 144.717,324.969 145.363,317.809 145.363 C 312.410 145.363,312.302 145.374,311.919 145.920 M265.977 169.486 C 264.924 170.806,264.912 170.945,264.912 182.175 L 264.912 192.946 265.573 193.466 L 266.233 193.985 306.380 193.985 L 346.526 193.985 347.073 193.356 C 347.682 192.656,347.955 172.005,347.369 170.987 C 347.231 170.747,347.008 170.241,346.873 169.862 L 346.629 169.173 342.174 169.174 C 335.464 169.175,335.338 169.301,335.338 176.024 L 335.338 180.394 334.486 180.799 C 333.102 181.455,312.793 181.406,312.194 180.745 C 311.841 180.355,311.779 179.617,311.774 175.795 C 311.769 171.901,311.704 171.162,311.285 170.238 L 310.801 169.173 306.215 169.176 C 298.715 169.180,298.994 168.911,298.996 176.122 C 298.997 180.413,298.994 180.442,298.391 180.837 C 297.429 181.467,277.858 181.282,276.868 180.633 L 276.190 180.189 276.190 175.801 C 276.190 171.372,275.944 169.900,275.116 169.374 C 274.575 169.030,266.259 169.133,265.977 169.486 M217.201 181.767 C 216.802 183.255,217.034 192.666,217.483 193.220 C 218.054 193.926,227.882 193.937,228.327 193.233 C 228.457 193.026,228.565 190.459,228.568 187.528 L 228.571 182.198 227.757 181.702 C 226.421 180.887,217.422 180.942,217.201 181.767 M96.312 206.743 C 96.862 207.675,96.963 216.298,96.429 216.738 C 96.252 216.884,93.988 217.059,91.228 217.139 C 81.733 217.415,82.533 216.872,82.486 223.083 C 82.458 226.717,82.416 227.054,81.882 227.845 L 81.309 228.697 71.829 228.762 C 61.430 228.835,61.387 228.829,60.276 227.242 C 59.725 226.457,59.711 207.236,60.260 206.780 C 61.054 206.121,62.664 206.057,78.956 206.037 L 95.882 206.015 96.312 206.743 M144.731 217.684 C 145.486 218.254,145.495 226.495,144.743 227.898 L 144.247 228.822 133.675 228.822 L 123.102 228.822 122.463 228.063 C 121.604 227.041,121.477 226.158,121.612 222.115 C 121.737 218.351,121.820 217.986,122.634 217.593 C 123.585 217.133,144.114 217.218,144.731 217.684 M264.340 217.866 C 264.885 218.411,265.155 225.521,264.689 227.075 C 264.197 228.719,263.411 228.822,251.426 228.822 L 241.116 228.822 240.671 228.008 C 239.974 226.733,240.009 218.587,240.715 217.808 C 241.409 217.041,263.569 217.095,264.340 217.866 M323.581 218.010 C 324.396 219.016,324.297 226.894,323.456 227.945 L 322.855 228.697 311.991 228.697 C 300.342 228.697,299.988 228.668,299.542 227.688 C 299.184 226.902,299.137 219.121,299.485 218.206 C 299.815 217.337,299.616 217.350,311.990 217.386 L 323.102 217.419 323.581 218.010 " stroke="none" fill="#0b0a07" fill-rule="evenodd"></path></g></svg>