<svg id="svg" version="1.1" xmlns="http://www.w3.org/2000/svg" xmlns:xlink="http://www.w3.org/1999/xlink" width="400" height="250.52631578947367" viewBox="0, 0, 400,250.52631578947367"><g id="svgg"><path id="path0" d="M108.521 7.393 L 108.521 13.784 102.130 13.784 L 95.739 13.784 95.739 19.044 L 95.739 24.303 88.409 24.370 L 81.078 24.436 81.014 66.479 L 80.951 108.521 70.425 108.521 L 59.900 108.521 59.900 103.258 L 59.900 97.995 54.637 97.995 L 49.373 97.995 49.373 91.602 L 49.373 85.209 35.777 85.274 L 22.180 85.338 22.113 91.667 L 22.047 97.995 16.785 97.995 L 11.524 97.995 11.589 110.589 L 11.654 123.183 16.850 123.251 L 22.045 123.318 22.113 128.514 L 22.180 133.709 28.509 133.776 L 34.837 133.843 34.837 140.105 L 34.837 146.366 46.366 146.366 L 57.895 146.366 57.895 152.632 L 57.895 158.897 69.424 158.897 L 80.952 158.897 80.952 169.544 L 80.952 180.190 75.752 180.258 L 70.551 180.326 70.484 186.529 L 70.417 192.732 64.156 192.732 L 57.895 192.732 57.895 198.992 L 57.895 205.253 52.694 205.321 L 47.494 205.388 47.494 224.311 L 47.494 243.233 65.288 243.233 L 83.083 243.233 83.150 236.905 L 83.217 230.576 90.606 230.576 L 97.995 230.576 97.995 224.311 L 97.995 218.045 103.256 218.045 L 108.517 218.045 108.582 230.639 L 108.647 243.233 127.444 243.233 L 146.241 243.233 146.308 236.905 L 146.375 230.576 151.633 230.576 L 156.892 230.576 156.892 229.574 L 156.892 228.571 157.895 228.571 L 158.897 228.571 158.897 223.308 L 158.897 218.045 192.604 218.045 L 226.311 218.045 226.376 230.639 L 226.441 243.233 246.366 243.233 L 266.291 243.233 266.358 236.905 L 266.425 230.576 271.684 230.576 L 276.942 230.576 276.942 224.311 L 276.942 218.045 282.206 218.045 L 287.469 218.045 287.469 224.311 L 287.469 230.576 292.728 230.576 L 297.986 230.576 298.053 236.905 L 298.120 243.233 316.917 243.233 L 335.714 243.233 335.779 225.378 L 335.843 207.523 348.435 207.458 L 361.028 207.393 361.095 201.065 L 361.161 194.737 367.423 194.737 L 373.684 194.737 373.684 188.471 L 373.684 182.206 378.947 182.206 L 384.211 182.206 384.211 176.942 L 384.211 171.679 385.213 171.679 L 386.216 171.679 386.216 170.551 L 386.216 169.424 392.608 169.424 L 399.000 169.424 398.936 140.038 L 398.872 110.652 397.807 110.575 C 396.747 110.498,396.742 110.493,396.742 109.509 L 396.742 108.521 390.476 108.521 L 384.211 108.521 384.211 85.338 L 384.211 62.155 378.947 62.155 L 373.684 62.155 373.684 55.921 L 373.684 49.687 372.901 49.530 C 371.879 49.326,348.171 49.326,347.149 49.530 L 346.366 49.687 346.366 55.921 L 346.366 62.155 342.105 62.155 L 337.845 62.155 337.845 61.153 L 337.845 60.150 336.842 60.150 L 335.840 60.150 335.840 42.231 L 335.840 24.311 330.576 24.311 L 325.313 24.311 325.313 19.048 L 325.313 13.784 318.922 13.784 L 312.531 13.784 312.531 7.393 L 312.531 1.003 210.526 1.003 L 108.521 1.003 108.521 7.393 M311.534 14.787 C 311.665 14.994,311.774 17.170,311.776 19.624 C 311.779 23.127,311.862 24.244,312.162 24.824 L 312.544 25.564 318.021 25.564 C 322.809 25.564,323.541 25.616,323.841 25.978 C 324.127 26.322,324.207 31.428,324.311 56.116 C 324.380 72.464,324.527 85.981,324.639 86.153 C 324.990 86.695,333.833 86.586,334.815 86.028 L 335.586 85.589 335.587 80.165 L 335.589 74.741 336.597 74.338 C 337.389 74.021,338.548 73.935,342.032 73.935 C 348.029 73.935,347.619 74.368,347.619 68.032 C 347.619 64.396,347.698 63.153,347.944 62.950 C 348.163 62.768,351.774 62.668,359.046 62.644 C 370.281 62.606,371.311 62.692,371.983 63.732 C 372.091 63.898,372.177 72.212,372.174 82.206 C 372.171 92.199,372.171 102.248,372.174 104.537 L 372.180 108.698 372.935 109.487 L 373.689 110.276 378.188 110.276 L 382.687 110.276 382.924 111.216 C 383.060 111.756,383.231 124.031,383.327 140.107 C 383.521 172.680,383.851 169.216,380.525 169.540 C 378.038 169.781,377.677 169.782,375.624 169.546 C 374.147 169.376,373.863 169.411,373.408 169.823 C 372.406 170.730,372.308 171.217,372.180 175.939 L 372.055 180.574 370.802 180.864 C 370.113 181.024,367.603 181.166,365.226 181.179 C 359.442 181.211,359.900 180.669,359.900 187.485 C 359.900 190.645,359.796 192.959,359.640 193.250 C 359.385 193.727,358.452 193.734,300.179 193.738 C 267.618 193.740,240.847 193.825,240.686 193.927 C 240.485 194.055,240.369 195.777,240.311 199.543 C 240.227 204.890,240.216 204.983,239.618 205.619 L 239.010 206.266 174.649 206.266 L 110.287 206.266 109.843 205.588 C 109.461 205.006,109.387 204.182,109.320 199.761 C 109.222 193.362,109.899 193.985,103.042 193.985 C 98.384 193.985,97.597 193.929,97.200 193.570 C 96.659 193.081,96.462 27.056,97.001 26.049 C 97.246 25.592,97.581 25.564,102.877 25.564 C 109.896 25.564,109.273 26.114,109.273 19.917 C 109.273 15.305,109.369 14.783,110.276 14.460 C 111.323 14.088,311.298 14.413,311.534 14.787 M229.637 51.143 L 228.822 51.678 228.822 55.651 C 228.822 60.528,229.100 62.083,230.034 62.438 C 231.199 62.881,251.844 62.617,252.136 62.155 C 252.512 61.560,252.450 51.495,252.068 51.189 C 251.325 50.594,230.537 50.551,229.637 51.143 M217.455 63.700 C 216.830 64.884,216.916 109.619,217.544 110.051 C 218.439 110.666,226.743 110.141,227.703 109.409 L 228.571 108.746 228.571 86.233 C 228.571 65.608,228.537 63.692,228.157 63.377 C 227.846 63.118,226.525 63.012,222.820 62.948 L 217.897 62.863 217.455 63.700 M253.156 63.385 C 252.516 64.025,252.354 71.992,252.956 73.183 L 253.273 73.810 258.905 73.810 L 264.536 73.810 264.536 68.800 L 264.536 63.791 263.784 63.415 C 262.428 62.735,253.830 62.711,253.156 63.385 M265.226 74.351 C 264.557 74.621,264.802 85.273,265.492 85.921 C 266.267 86.649,275.264 86.782,275.537 86.070 C 275.841 85.279,275.706 74.804,275.388 74.486 C 275.088 74.186,265.937 74.064,265.226 74.351 M276.310 87.134 C 275.621 87.823,275.850 97.815,276.566 98.343 C 277.762 99.224,322.860 99.302,323.738 98.425 C 324.141 98.023,324.185 97.421,324.185 92.410 L 324.185 86.842 300.458 86.778 C 278.548 86.719,276.698 86.746,276.310 87.134 M48.084 99.687 C 48.263 100.136,48.382 103.954,48.427 110.676 C 48.483 118.961,48.564 121.057,48.840 121.390 C 49.153 121.768,50.610 121.805,65.157 121.805 L 81.130 121.805 81.793 122.419 L 82.456 123.034 82.456 133.816 L 82.456 144.599 81.696 144.992 C 80.857 145.426,60.667 145.462,60.234 145.030 C 60.119 144.916,59.969 142.395,59.900 139.430 L 59.774 134.037 59.023 133.436 L 58.271 132.835 47.315 132.833 C 34.319 132.832,35.840 133.557,35.840 127.363 C 35.840 121.230,36.391 121.734,29.544 121.601 C 26.478 121.542,24.051 121.389,23.872 121.244 C 23.428 120.885,23.416 99.742,23.860 99.298 C 24.085 99.073,27.122 98.997,35.985 98.997 L 47.809 98.997 48.084 99.687 M204.963 110.840 C 204.223 112.150,204.195 167.209,204.933 168.379 L 205.302 168.964 210.817 168.881 C 215.933 168.803,216.357 168.762,216.687 168.310 C 217.135 167.697,217.229 111.594,216.783 110.760 C 216.347 109.945,205.426 110.018,204.963 110.840 M266.016 122.081 C 265.592 122.549,265.525 123.145,265.414 127.444 C 265.247 133.882,265.841 133.333,259.032 133.333 C 255.019 133.333,253.619 133.414,253.275 133.666 C 252.510 134.225,252.365 144.094,253.110 144.839 C 253.820 145.549,274.634 145.673,275.633 144.973 L 276.190 144.583 276.190 133.840 L 276.190 123.096 275.542 122.325 L 274.893 121.554 270.693 121.554 C 266.744 121.554,266.465 121.585,266.016 122.081 M348.157 122.201 C 347.974 122.601,347.870 124.506,347.870 127.422 C 347.870 131.635,347.828 132.065,347.368 132.651 L 346.866 133.289 341.791 133.388 C 336.084 133.500,335.948 133.531,335.595 134.799 C 335.139 136.442,335.264 144.489,335.753 144.894 C 336.508 145.522,359.166 145.535,359.733 144.908 C 360.427 144.141,360.257 122.864,359.550 122.084 C 359.096 121.582,358.840 121.559,353.759 121.565 L 348.444 121.570 348.157 122.201 M312.132 133.359 C 311.423 134.142,311.241 144.128,311.921 144.881 C 312.587 145.616,323.245 145.624,323.910 144.889 C 324.585 144.144,324.409 134.133,323.708 133.359 C 322.968 132.542,312.872 132.542,312.132 133.359 M265.414 158.396 C 264.928 158.882,264.912 159.231,264.912 169.660 L 264.912 180.423 265.469 180.813 C 266.416 181.476,346.313 181.400,347.079 180.735 C 347.616 180.270,347.619 180.207,347.619 169.626 L 347.619 158.985 347.018 158.420 C 346.201 157.652,337.198 157.689,336.016 158.464 L 335.338 158.909 335.338 163.392 L 335.338 167.875 334.567 168.524 L 333.796 169.173 323.178 169.173 L 312.560 169.173 312.170 168.616 C 311.851 168.162,311.779 167.223,311.779 163.525 C 311.779 157.416,312.310 157.895,305.538 157.895 C 300.637 157.895,300.278 157.926,299.658 158.414 L 298.997 158.934 298.997 163.393 C 298.997 167.525,298.959 167.901,298.478 168.513 L 297.959 169.173 288.365 169.173 C 275.339 169.173,276.204 169.596,276.196 163.230 C 276.189 157.507,276.602 157.895,270.504 157.895 C 266.249 157.895,265.878 157.931,265.414 158.396 M217.377 169.486 C 217.269 169.659,217.136 172.088,217.083 174.886 C 216.954 181.534,216.404 180.952,222.825 180.952 C 229.257 180.952,228.571 181.528,228.571 176.128 L 228.571 171.608 227.643 170.391 L 226.714 169.173 222.144 169.173 C 218.759 169.173,217.522 169.254,217.377 169.486 M229.113 181.841 C 228.923 182.259,228.823 184.231,228.824 187.543 L 228.825 192.607 229.654 193.170 C 230.480 193.733,238.460 194.060,239.704 193.582 C 240.377 193.324,240.293 181.825,239.615 181.462 C 239.329 181.309,237.140 181.203,234.267 181.203 L 229.404 181.203 229.113 181.841 M81.899 194.375 C 82.438 194.752,82.456 194.907,82.456 199.026 C 82.456 201.369,82.580 203.778,82.731 204.379 L 83.006 205.470 84.423 205.632 C 85.202 205.722,88.103 205.851,90.869 205.919 L 95.898 206.043 96.320 206.757 C 96.863 207.676,96.957 216.303,96.429 216.738 C 96.252 216.884,93.988 217.059,91.228 217.139 C 81.733 217.415,82.533 216.872,82.486 223.083 C 82.458 226.717,82.416 227.054,81.882 227.845 L 81.309 228.697 71.829 228.762 C 61.430 228.835,61.387 228.829,60.276 227.242 C 59.870 226.663,59.697 207.720,60.092 207.108 C 60.623 206.286,62.196 206.015,66.441 206.015 L 70.665 206.015 71.110 205.337 C 71.489 204.758,71.567 203.926,71.642 199.635 C 71.692 196.721,71.837 194.480,71.986 194.298 C 72.400 193.792,81.164 193.860,81.899 194.375 M323.545 206.694 C 324.047 207.233,324.060 207.501,324.059 217.220 L 324.058 227.193 323.456 227.945 L 322.855 228.697 311.866 228.697 C 299.740 228.697,299.965 228.725,299.488 227.126 C 299.092 225.798,299.263 218.179,299.699 217.744 C 299.939 217.504,301.347 217.401,305.087 217.351 C 312.316 217.255,311.779 217.715,311.779 211.618 C 311.779 208.121,311.848 207.353,312.218 206.721 L 312.657 205.970 317.843 206.055 C 322.814 206.137,323.051 206.163,323.545 206.694 M144.737 217.688 C 145.207 218.043,145.238 218.360,145.238 222.755 C 145.238 227.049,145.196 227.501,144.737 228.125 L 144.236 228.806 133.659 228.814 L 123.083 228.822 122.381 227.902 C 121.164 226.307,121.347 218.212,122.614 217.602 C 123.592 217.130,144.104 217.210,144.737 217.688 M264.340 217.866 C 264.888 218.414,265.147 225.516,264.681 227.247 C 264.294 228.682,264.542 228.652,252.207 228.757 L 241.130 228.851 240.678 228.022 C 240.083 226.932,240.008 218.384,240.587 217.686 C 241.134 217.028,263.671 217.198,264.340 217.866 " stroke="none" fill="#0c0b08" fill-rule="evenodd"></path></g></svg>